<?xml version="1.0" encoding="iso-8859-1"?>
<!-- Generator: Adobe Illustrator 19.0.0, SVG Export Plug-In . SVG Version: 6.00 Build 0)  -->
<svg version="1.1" id="Capa_1" xmlns="http://www.w3.org/2000/svg" xmlns:xlink="http://www.w3.org/1999/xlink" x="0px" y="0px"
	 viewBox="0 0 511.997 511.997" style="enable-background:new 0 0 511.997 511.997;" xml:space="preserve">
<rect x="217.697" y="117.59" style="fill:#61C6AD;" width="76.6" height="67.917"/>
<rect x="217.697" y="117.59" style="opacity:0.1;enable-background:new    ;" width="76.6" height="67.917"/>
<path style="fill:#EEEDED;" d="M255.997,154.633c-94.882,0-171.799,59.607-171.799,141.619
	c0,110.514,111.974,148.074,164.383,204.985c4.007,4.351,10.825,4.351,14.832,0c52.408-56.91,164.383-94.471,164.383-204.985
	C427.796,214.24,350.879,154.633,255.997,154.633z"/>
<path style="fill:#92D2E7;" d="M255.997,361.096c-52.852,0-94.862,16.472-129.194,38.47c37.289,40.254,90.285,67.472,121.778,101.67
	c4.007,4.351,10.825,4.351,14.832,0c31.493-34.199,84.489-61.417,121.778-101.67C350.859,377.569,308.849,361.096,255.997,361.096z"
	/>
<path style="fill:#61C6AD;" d="M255.997,154.633c-67.549,0-125.983,30.217-154.049,77.217
	c37.977,12.299,89.244,19.851,154.049,19.851s116.072-7.552,154.049-19.851C381.98,184.85,323.546,154.633,255.997,154.633z"/>
<path style="fill:#F8CA4F;" d="M378.802,195.803c-34.707,7.743-75.855,11.661-122.805,11.661s-88.098-3.918-122.805-11.661
	c-4.605,3.813-8.942,7.852-12.985,12.106c37.798,9.517,83.35,14.332,135.79,14.332s97.992-4.816,135.79-14.333
	C387.744,203.654,383.406,199.615,378.802,195.803z"/>
<path style="fill:#485458;" d="M275.954,308.259c0,11.97-9.917,21.625-21.983,21.196c-11.493-0.409-20.436-10.204-20.436-21.704
	v-14.918c0-3.194,2.589-5.783,5.783-5.783h30.852c3.194,0,5.783,2.589,5.783,5.783v15.426H275.954z"/>
<g>
	<path style="fill:#FFFFFF;" d="M213.039,425.487c-1.919,0-3.839-0.732-5.303-2.196l-17.68-17.68c-2.929-2.93-2.929-7.678,0-10.606
		c2.929-2.93,7.678-2.929,10.606-0.001l17.68,17.68c2.929,2.93,2.929,7.678,0,10.606
		C216.878,424.755,214.958,425.487,213.039,425.487z"/>
	<path style="fill:#FFFFFF;" d="M195.359,425.487c-1.919,0-3.839-0.732-5.303-2.197c-2.929-2.929-2.929-7.677,0-10.606l17.68-17.68
		c2.929-2.929,7.678-2.928,10.606,0.001c2.929,2.929,2.929,7.677,0,10.606l-17.68,17.68
		C199.198,424.755,197.278,425.487,195.359,425.487z"/>
	<path style="fill:#FFFFFF;" d="M294.904,425.487c-1.919,0-3.839-0.732-5.303-2.197c-2.929-2.929-2.929-7.677,0-10.606l17.68-17.68
		c2.929-2.929,7.678-2.928,10.606,0.001c2.929,2.929,2.929,7.677,0,10.606l-17.68,17.68
		C298.743,424.755,296.823,425.487,294.904,425.487z"/>
	<path style="fill:#FFFFFF;" d="M312.584,425.487c-1.919,0-3.839-0.732-5.303-2.196l-17.68-17.68c-2.929-2.93-2.929-7.678,0-10.606
		c2.929-2.93,7.678-2.929,10.607-0.001l17.68,17.68c2.929,2.93,2.929,7.678,0,10.606
		C316.423,424.755,314.503,425.487,312.584,425.487z"/>
	<path style="fill:#FFFFFF;" d="M263.585,457.978c-1.919,0-3.839-0.732-5.303-2.197l-17.68-17.68c-2.929-2.93-2.929-7.678,0-10.607
		c2.929-2.928,7.678-2.929,10.606,0.001l17.68,17.681c2.929,2.929,2.929,7.677,0,10.606
		C267.424,457.246,265.504,457.978,263.585,457.978z"/>
	<path style="fill:#FFFFFF;" d="M245.905,457.978c-1.919,0-3.839-0.732-5.303-2.196c-2.929-2.93-2.929-7.678,0-10.606l17.68-17.681
		c2.929-2.93,7.678-2.929,10.606-0.001c2.929,2.93,2.929,7.678,0,10.607l-17.68,17.68
		C249.744,457.246,247.824,457.978,245.905,457.978z"/>
</g>
<path style="fill:#F8CA4F;" d="M301.492,117.589h-90.99c-6.384,0-11.559-5.175-11.559-11.559V81.71
	c0-6.384,5.175-11.559,11.559-11.559h90.99c6.384,0,11.559,5.175,11.559,11.559v24.319
	C313.051,112.413,307.876,117.589,301.492,117.589z"/>
<path style="opacity:0.1;enable-background:new    ;" d="M212.948,106.029V81.71c0-6.384,5.175-11.559,11.559-11.559h-14.005
	c-6.384,0-11.559,5.175-11.559,11.559v24.32c0,6.384,5.175,11.559,11.559,11.559h14.005
	C218.123,117.589,212.948,112.413,212.948,106.029z"/>
<path style="opacity:0.1;enable-background:new    ;" d="M272.993,489.031c-52.409-56.91-164.383-94.471-164.383-204.985
	c0-48.606,27.02-89.34,68.782-114.462c-55.345,22.639-93.194,69.139-93.194,126.667c0,110.514,111.974,148.074,164.383,204.984
	c4.007,4.351,10.825,4.351,14.832,0c3.426-3.72,7.113-7.357,11-10.938C273.912,489.926,273.433,489.509,272.993,489.031z"/>
<g>
	<path style="fill:#FFFFFF;" d="M395.672,346.349c-0.892,0-1.799-0.16-2.682-0.498c-3.868-1.482-5.802-5.819-4.321-9.686
		c1.635-4.268,3-8.688,4.057-13.137c0.958-4.029,4.999-6.523,9.031-5.563c4.03,0.958,6.52,5.001,5.563,9.031
		c-1.21,5.091-2.772,10.149-4.643,15.033C401.533,344.515,398.688,346.349,395.672,346.349z"/>
	<path style="fill:#FFFFFF;" d="M403.115,309.616c-0.108,0-0.217-0.002-0.327-0.007c-4.138-0.178-7.349-3.676-7.172-7.815
		c0.078-1.82,0.118-3.684,0.118-5.543c0-11.665-2.14-23.055-6.36-33.853c-1.508-3.858,0.397-8.208,4.255-9.716
		s8.208,0.398,9.715,4.255c4.903,12.546,7.389,25.772,7.389,39.314c0,2.071-0.044,4.152-0.131,6.185
		C410.43,306.466,407.109,309.616,403.115,309.616z"/>
</g>
<path d="M172.801,286.079v12.565c0,4.143,3.358,7.5,7.5,7.5s7.5-3.357,7.5-7.5v-12.565c0-4.143-3.358-7.5-7.5-7.5
	S172.801,281.936,172.801,286.079z M239.318,279.55c-7.324,0-13.283,5.959-13.283,13.283v14.918
	c0,15.559,12.413,28.656,27.668,29.198c0.354,0.013,0.706,0.019,1.058,0.019c7.478,0,14.515-2.835,19.917-8.049
	c5.659-5.46,8.775-12.798,8.775-20.66v-15.426c0-7.324-5.959-13.283-13.283-13.283H239.318z M268.454,308.259
	c0,3.755-1.488,7.259-4.191,9.867c-2.701,2.605-6.261,3.965-10.026,3.833c-7.279-0.259-13.202-6.632-13.202-14.208V294.55h27.418
	v13.709H268.454z M324.193,286.079v12.565c0,4.143,3.358,7.5,7.5,7.5s7.5-3.357,7.5-7.5v-12.565c0-4.143-3.358-7.5-7.5-7.5
	C327.551,278.579,324.193,281.936,324.193,286.079z M416.607,228.222c-0.038-0.069-0.079-0.136-0.119-0.203
	c-8.649-14.502-20.156-27.723-34.294-39.161c-22.396-18.119-50.038-30.747-80.399-37.068v-26.716
	c10.368-0.164,18.756-8.637,18.756-19.044V81.71c0-10.51-8.55-19.06-19.059-19.06h-14.873c5.133-6.583,8.203-14.85,8.203-23.825
	C294.822,17.417,277.405,0,255.997,0s-38.825,17.417-38.825,38.825c0,8.975,3.07,17.242,8.203,23.825h-14.873
	c-10.509,0-19.059,8.55-19.059,19.06v24.319c0,10.408,8.387,18.88,18.756,19.044v26.716c-30.361,6.322-58.003,18.949-80.399,37.068
	c-14.134,11.435-25.639,24.652-34.286,39.148c-0.044,0.074-0.089,0.147-0.13,0.223c-12.218,20.57-18.685,43.711-18.685,68.024
	c0,82.347,59.063,125.872,111.174,164.274c2.765,2.038,5.516,4.064,8.243,6.086c3.329,2.47,8.025,1.77,10.492-1.558
	c2.467-3.327,1.769-8.024-1.558-10.491c-2.738-2.03-5.501-4.066-8.277-6.112c-20.223-14.903-40.715-30.005-58.166-47.352
	c36.808-21.855,75.303-32.503,117.392-32.503c26.495,0,52.138,4.371,76.217,12.992c3.901,1.397,8.192-0.635,9.589-4.533
	c1.396-3.9-0.633-8.193-4.533-9.59c-25.706-9.203-53.05-13.869-81.273-13.869c-45.961,0-87.863,11.896-127.894,36.321
	c-21.579-24.722-36.404-54.281-36.404-93.666c0-19.619,4.763-38.41,13.824-55.434c5.598,1.684,11.428,3.265,17.409,4.716
	c1.59,0.385,3.198,0.764,4.824,1.136c0.563,0.129,1.124,0.19,1.678,0.19c3.42,0,6.51-2.355,7.305-5.83
	c0.923-4.038-1.602-8.061-5.64-8.983c-1.561-0.357-3.104-0.72-4.631-1.091c-4.358-1.057-8.615-2.19-12.763-3.377
	c6.969-9.856,15.508-18.952,25.53-27.061c21.807-17.643,49.139-29.63,79.226-35.065c0.356-0.036,0.702-0.105,1.042-0.189
	c11.803-2.068,24.023-3.132,36.495-3.132c12.472,0,24.692,1.064,36.495,3.132c0.34,0.084,0.685,0.153,1.042,0.189
	c30.087,5.435,57.419,17.422,79.226,35.065c10.025,8.11,18.565,17.209,25.536,27.068c-38.424,11.025-86.223,16.614-142.298,16.614
	c-31.945,0-61.676-1.869-88.368-5.557c-4.101-0.562-7.889,2.301-8.456,6.403c-0.566,4.104,2.3,7.889,6.403,8.456
	c27.37,3.78,57.791,5.697,90.42,5.697c59.419,0,109.993-6.186,150.473-18.385c9.062,17.025,13.826,35.816,13.826,55.436
	c0,39.384-14.825,68.942-36.404,93.664c-4.666-2.846-9.37-5.535-14.046-8.018c-3.659-1.941-8.199-0.552-10.141,3.108
	c-1.942,3.659-0.551,8.199,3.108,10.142c3.515,1.865,7.048,3.865,10.57,5.957c-17.45,17.344-37.94,32.445-58.16,47.346
	c-21.436,15.797-41.684,30.718-57.327,47.705c-0.676,0.734-1.48,0.844-1.899,0.844c-0.419,0-1.223-0.109-1.899-0.845
	c-4.932-5.354-10.542-10.748-17.152-16.486c-3.128-2.716-7.865-2.382-10.58,0.746c-2.716,3.128-2.382,7.864,0.746,10.58
	c6.184,5.369,11.402,10.382,15.951,15.321c3.326,3.612,8.04,5.684,12.934,5.684c4.894,0,9.607-2.071,12.933-5.683
	c14.667-15.928,34.351-30.434,55.191-45.791c52.111-38.402,111.174-81.929,111.174-164.274
	C435.296,271.937,428.828,248.794,416.607,228.222z M255.997,15c13.137,0,23.825,10.688,23.825,23.825S269.134,62.65,255.997,62.65
	c-13.137,0-23.825-10.688-23.825-23.825S242.86,15,255.997,15z M286.795,149.203c-10.054-1.37-20.348-2.071-30.798-2.071
	s-20.744,0.701-30.798,2.071v-24.115h61.597v24.115H286.795z M210.502,110.089c-2.238,0-4.059-1.821-4.059-4.06V81.71
	c0-2.238,1.821-4.06,4.059-4.06h90.99c2.238,0,4.059,1.821,4.059,4.06v24.319c0,2.238-1.821,4.06-4.059,4.06H210.502z"/>
<g>
</g>
<g>
</g>
<g>
</g>
<g>
</g>
<g>
</g>
<g>
</g>
<g>
</g>
<g>
</g>
<g>
</g>
<g>
</g>
<g>
</g>
<g>
</g>
<g>
</g>
<g>
</g>
<g>
</g>
</svg>
