<?xml version="1.0" encoding="iso-8859-1"?>
<!-- Generator: Adobe Illustrator 19.0.0, SVG Export Plug-In . SVG Version: 6.00 Build 0)  -->
<svg version="1.1" id="Capa_1" xmlns="http://www.w3.org/2000/svg" xmlns:xlink="http://www.w3.org/1999/xlink" x="0px" y="0px"
	 viewBox="0 0 512 512" style="enable-background:new 0 0 512 512;" xml:space="preserve">
<polygon style="fill:#AA715F;" points="438.868,193.587 256,109.71 73.132,193.587 73.132,451.191 438.868,451.191 "/>
<path style="opacity:0.1;enable-background:new    ;" d="M354.785,201.526c0-4.021-3.26-7.28-7.28-7.28h-29.516
	c-4.021,0-7.28,3.259-7.28,7.28s3.26,7.28,7.28,7.28h29.516C351.525,208.806,354.785,205.547,354.785,201.526z M159.281,300.472
	c0-4.021-3.26-7.28-7.28-7.28H73.132v14.561H152C156.021,307.753,159.281,304.493,159.281,300.472z M169.885,348.432h-35.769
	c-4.021,0-7.28,3.259-7.28,7.28s3.259,7.28,7.28,7.28h35.769c4.021,0,7.28-3.259,7.28-7.28S173.906,348.432,169.885,348.432z
	 M177.898,219.134h-39.214c-4.021,0-7.28,3.259-7.28,7.28s3.26,7.28,7.28,7.28h39.214c4.021,0,7.28-3.259,7.28-7.28
	S181.918,219.134,177.898,219.134z M392.432,263.443c0-4.021-3.26-7.28-7.28-7.28h-52.405c-4.021,0-7.28,3.259-7.28,7.28
	s3.26,7.28,7.28,7.28h52.405C389.172,270.724,392.432,267.465,392.432,263.443z M375.388,328.6c-4.021,0-7.28,3.259-7.28,7.28
	s3.259,7.28,7.28,7.28h63.48V328.6H375.388z M377.982,378.626h-35.769c-4.021,0-7.28,3.259-7.28,7.28s3.26,7.28,7.28,7.28h35.769
	c4.021,0,7.28-3.259,7.28-7.28S382.003,378.626,377.982,378.626z"/>
<path style="opacity:0.1;enable-background:new    ;" d="M256,109.71L73.132,193.587v50.523l169.718-77.846
	c8.348-3.829,17.951-3.829,26.299,0l169.718,77.846v-50.523L256,109.71z"/>
<rect x="354.83" y="33.557" style="fill:#AA715F;" width="80.21" height="126.24"/>
<polygon style="opacity:0.1;enable-background:new    ;" points="354.828,33.557 354.828,78.142 435.038,89.251 435.038,33.557 "/>
<path style="fill:#EEEDED;" d="M477.522,157.905L281.768,68.117c-16.359-7.503-35.176-7.503-51.536,0L34.478,157.905
	c-9.596,4.402-15.748,13.991-15.748,24.549v17.573c0,18.62,19.277,30.986,36.201,23.223l52.663-24.155v5.747
	c0,11.468,9.297,20.765,20.765,20.765s20.765-9.297,20.765-20.765v-24.795l93.727-42.991c8.348-3.829,17.951-3.829,26.299,0
	l145.124,66.565v34.925c0,11.468,9.297,20.765,20.765,20.765l0,0c11.468,0,20.765-9.297,20.765-20.765v-15.877l1.266,0.581
	c16.924,7.763,36.201-4.604,36.201-23.223v-17.573C493.27,171.896,487.118,162.307,477.522,157.905z"/>
<path style="opacity:0.1;enable-background:new    ;" d="M34.943,193.233V175.24c0-9.82,5.209-18.807,13.526-23.753l-13.991,6.417
	c-9.596,4.402-15.748,13.991-15.748,24.549v17.572c0,18.62,19.277,30.986,36.201,23.223l8.607-3.948
	C48.833,220.706,34.943,209.226,34.943,193.233z"/>
<path style="opacity:0.15;enable-background:new    ;" d="M285.953,307.317h-59.906c-11.409,0-20.657,9.249-20.657,20.657v123.217
	h101.22V327.974C306.61,316.565,297.362,307.317,285.953,307.317z"/>
<circle style="fill:#F8CA4F;" cx="231.5" cy="382.32" r="6.751"/>
<path style="fill:#EEEDED;" d="M438.946,71.728l-88.778-12.296c-6.88-0.953-12.003-6.834-12.003-13.78V30.639
	c0-12.132,9.835-21.968,21.968-21.968h69.601c12.132,0,21.968,9.835,21.968,21.968v29.978
	C451.702,67.424,445.688,72.661,438.946,71.728z"/>
<path style="opacity:0.1;enable-background:new    ;" d="M357.955,47.879V31.962c0-12.863,10.428-23.291,23.291-23.291h-21.113
	c-12.132,0-21.968,9.835-21.968,21.968v15.012c0,6.946,5.123,12.827,12.003,13.78l18.104,2.507
	C362.224,60.037,357.955,54.405,357.955,47.879z"/>
<path style="fill:#EEEDED;" d="M478.431,451.191h-2.328c-6.264,0-11.848-4.182-13.366-10.259
	c-4.582-18.343-21.171-31.931-40.934-31.931c-16.146,0-30.168,9.074-37.26,22.396c-4.381-3.556-9.964-5.691-16.047-5.691
	c-10.116,0-18.856,5.894-22.971,14.436c-3.204,6.65-9.738,11.049-17.12,11.049H33.569c-14.397,0-26.069,11.671-26.069,26.069l0,0
	c0,14.397,11.671,26.069,26.069,26.069h444.862c14.397,0,26.069-11.671,26.069-26.069l0,0
	C504.5,462.862,492.829,451.191,478.431,451.191z"/>
<path style="opacity:0.1;enable-background:new    ;" d="M345.524,440.142c-3.204,6.65-9.738,11.049-17.12,11.049h11.978
	c7.382,0,13.916-4.399,17.12-11.049c2.181-4.526,6.384-11.624,14.562-14.164c-1.168-0.164-2.355-0.272-3.568-0.272
	C358.379,425.707,349.64,431.601,345.524,440.142z M59.532,451.191H33.569c-14.397,0-26.069,11.671-26.069,26.069l0,0
	c0,14.397,11.671,26.069,26.069,26.069h25.963c-14.398,0-26.069-11.671-26.069-26.069l0,0
	C33.463,462.862,45.135,451.191,59.532,451.191z M421.802,409.001c-16.146,0-30.168,9.074-37.26,22.396
	c14.911,14.305,15.576-22.396,50.27-20.344C430.713,409.726,426.343,409.001,421.802,409.001z"/>
<path style="fill:#AA715F;" d="M58.964,451.191c-17.153,0-31.057-13.905-31.057-31.057s13.905-31.057,31.057-31.057h79.687v62.114
	L58.964,451.191L58.964,451.191z"/>
<path style="opacity:0.15;enable-background:new    ;" d="M58.964,451.191c-17.153,0-31.057-13.905-31.057-31.057
	s13.905-31.057,31.057-31.057h79.687v62.114L58.964,451.191L58.964,451.191z"/>
<circle style="fill:#CFA08F;" cx="138.65" cy="420.13" r="31.06"/>
<g style="opacity:0.1;">
	<path d="M66.14,418.065h-8.779c-4.142,0-7.5-3.357-7.5-7.5c0-4.142,3.358-7.5,7.5-7.5h8.779c4.142,0,7.5,3.358,7.5,7.5
		C73.64,414.708,70.282,418.065,66.14,418.065z"/>
	<path d="M89.392,438.152H75.217c-4.142,0-7.5-3.357-7.5-7.5s3.358-7.5,7.5-7.5h14.175c4.142,0,7.5,3.357,7.5,7.5
		C96.892,434.795,93.534,438.152,89.392,438.152z"/>
</g>
<circle style="fill:#FFFFFF;" cx="256" cy="228.68" r="38.888"/>
<path d="M478.431,443.69h-2.329c-2.866,0-5.427-1.925-6.09-4.576c-3.386-13.556-12.133-24.6-23.645-31.136v-81.999
	c0-4.143-3.358-7.5-7.5-7.5s-7.5,3.357-7.5,7.5v76.452c-3.106-0.605-6.303-0.93-9.565-0.93c-15.734,0-30.305,7.385-39.613,19.689
	c-4.274-1.949-8.952-2.983-13.694-2.983c-12.591,0-24.26,7.333-29.728,18.681c-2.022,4.196-5.994,6.804-10.364,6.804H314.11V327.974
	c0-15.526-12.631-28.157-28.157-28.157h-59.906c-15.526,0-28.157,12.631-28.157,28.157V443.69h-28.745
	c5.049-6.521,8.064-14.691,8.064-23.557c0-21.261-17.297-38.558-38.557-38.558h-58.02V219.712l20.036-9.19
	c2.637,12.871,14.051,22.583,27.691,22.583c15.585,0,28.265-12.68,28.265-28.265v-19.983l89.354-40.985
	c6.369-2.922,13.676-2.922,20.045,0l140.751,64.559v30.113c0,14.341,10.738,26.213,24.594,28.019v16.952c0,4.143,3.358,7.5,7.5,7.5
	s7.5-3.357,7.5-7.5v-19.084c9.959-4.376,16.935-14.33,16.935-25.888v-5.752c7.664,1.044,15.54-0.637,22.263-4.949
	c9.521-6.107,15.204-16.506,15.204-27.817v-17.572c0-13.448-7.898-25.76-20.121-31.366l-38.111-17.481V79.208
	c3.755-0.415,7.337-1.949,10.241-4.479c4.082-3.556,6.423-8.699,6.423-14.112V30.639c0-16.249-13.219-29.468-29.468-29.468h-69.602
	c-16.249,0-29.468,13.219-29.468,29.468v15.013c0,10.012,7.046,18.677,16.664,20.872v23.413L284.895,61.3
	c-18.363-8.423-39.427-8.423-57.79,0l-46.077,21.134c-3.765,1.728-5.417,6.179-3.69,9.944c1.727,3.766,6.179,5.417,9.944,3.69
	l46.077-21.134c14.389-6.602,30.893-6.602,45.282,0l195.754,89.788c6.91,3.169,11.375,10.129,11.375,17.731v17.572
	c0,6.27-3.026,11.807-8.303,15.192c-5.277,3.384-11.571,3.829-17.274,1.212l-1.266-0.58c-2.321-1.064-5.025-0.873-7.175,0.507
	c-2.15,1.379-3.449,3.758-3.449,6.311v15.876c0,7.314-5.951,13.266-13.265,13.266s-13.265-5.951-13.265-13.266V203.62
	c0-2.932-1.708-5.595-4.373-6.817l-145.124-66.565c-10.344-4.744-22.209-4.744-32.553,0l-93.727,42.991
	c-2.665,1.223-4.373,3.886-4.373,6.817v24.795c0,7.314-5.951,13.265-13.265,13.265c-7.314,0-13.265-5.95-13.265-13.265v-5.747
	c0-2.555-1.3-4.934-3.45-6.313c-2.15-1.379-4.853-1.57-7.177-0.505l-52.663,24.155c-5.698,2.615-11.993,2.174-17.271-1.214
	c-5.277-3.385-8.303-8.922-8.303-15.191v-17.572c0-7.603,4.465-14.563,11.375-17.731l105.074-48.195
	c3.765-1.728,5.417-6.18,3.69-9.944c-1.727-3.765-6.179-5.419-9.944-3.69L31.351,151.088c-12.223,5.606-20.121,17.918-20.121,31.366
	v17.572c0,11.311,5.684,21.71,15.204,27.817c9.52,6.106,21.344,6.938,31.624,2.223l7.574-3.474v154.984h-6.668
	c-21.26,0-38.557,17.297-38.557,38.558c0,9.026,3.126,17.331,8.341,23.908C12.514,446.388,0,460.388,0,477.26
	c0,18.51,15.059,33.569,33.569,33.569h18.963c4.142,0,7.5-3.357,7.5-7.5s-3.358-7.5-7.5-7.5H33.569
	C23.33,495.829,15,487.499,15,477.26c0-10.239,8.33-18.569,18.569-18.569h25.357c0.013,0,0.026,0.001,0.038,0.001h79.688
	c0.013,0,0.025-0.001,0.038-0.001h66.68c0.007,0,0.013,0.001,0.019,0.001c0.007,0,0.013-0.001,0.019-0.001H306.59
	c0.006,0,0.013,0.001,0.019,0.001c0.007,0,0.013-0.001,0.019-0.001h21.774c10.183,0,19.332-5.859,23.876-15.292
	c2.983-6.191,9.348-10.192,16.215-10.192c4.17,0,8.085,1.388,11.32,4.015c1.74,1.411,4.018,1.975,6.216,1.527
	c2.196-0.445,4.078-1.849,5.131-3.826c6.048-11.362,17.789-18.421,30.64-18.421c4.916,0,9.629,1.028,13.913,2.897
	c0.117,0.054,0.233,0.108,0.353,0.156c9.451,4.251,16.753,12.633,19.391,23.196c2.345,9.386,10.834,15.94,20.642,15.94h2.329
	c10.239,0,18.569,8.33,18.569,18.569s-8.33,18.569-18.569,18.569H99.415c-4.142,0-7.5,3.357-7.5,7.5s3.358,7.5,7.5,7.5h379.016
	c18.51,0,33.569-15.06,33.569-33.569C512,458.75,496.941,443.69,478.431,443.69z M427.538,126.727l-65.21-29.91v-28.13l65.21,9.032
	V126.727z M439.975,64.299l-88.777-12.296c-3.154-0.438-5.533-3.168-5.533-6.351V30.639c0-7.978,6.49-14.468,14.468-14.468h69.602
	c7.978,0,14.468,6.49,14.468,14.468v29.978c0,1.472-0.799,2.388-1.275,2.802C442.45,63.833,441.434,64.501,439.975,64.299z
	 M108.159,443.69H58.925c-12.972-0.021-23.519-10.58-23.519-23.557c0-12.989,10.568-23.558,23.557-23.558h49.195
	c-5.049,6.521-8.065,14.691-8.065,23.558C100.094,429,103.11,437.17,108.159,443.69z M138.69,443.69h-0.077
	c-12.972-0.021-23.519-10.58-23.519-23.557c0-12.989,10.568-23.558,23.557-23.558s23.557,10.568,23.557,23.558
	C162.208,433.11,151.661,443.669,138.69,443.69z M299.11,443.69h-86.22V327.974c0-7.255,5.902-13.157,13.157-13.157h59.906
	c7.255,0,13.157,5.902,13.157,13.157L299.11,443.69L299.11,443.69z M209.612,228.682c0,25.578,20.81,46.388,46.388,46.388
	c25.579,0,46.388-20.81,46.388-46.388s-20.81-46.388-46.388-46.388C230.421,182.294,209.612,203.104,209.612,228.682z
	 M287.388,228.682c0,17.308-14.081,31.388-31.388,31.388c-17.308,0-31.388-14.08-31.388-31.388s14.081-31.388,31.388-31.388
	C273.308,197.294,287.388,211.374,287.388,228.682z"/>
<g>
</g>
<g>
</g>
<g>
</g>
<g>
</g>
<g>
</g>
<g>
</g>
<g>
</g>
<g>
</g>
<g>
</g>
<g>
</g>
<g>
</g>
<g>
</g>
<g>
</g>
<g>
</g>
<g>
</g>
</svg>
