<?xml version="1.0" encoding="iso-8859-1"?>
<!-- Generator: Adobe Illustrator 19.0.0, SVG Export Plug-In . SVG Version: 6.00 Build 0)  -->
<svg version="1.1" id="Capa_1" xmlns="http://www.w3.org/2000/svg" xmlns:xlink="http://www.w3.org/1999/xlink" x="0px" y="0px"
	 viewBox="0 0 512 512" style="enable-background:new 0 0 512 512;" xml:space="preserve">
<path style="fill:#c27ed6;" d="M329.486,45.733L329.486,45.733c-22.451,6.344-46.22,6.344-68.67,0l0,0
	c-12.748-3.602-24.379,8.431-20.346,21.049l22.313,69.802h64.735l22.314-69.802C353.866,54.164,342.234,42.131,329.486,45.733z"/>
<polygon style="opacity:0.1;enable-background:new    ;" points="250.708,98.808 262.783,136.583 327.519,136.583 339.594,98.808 
	"/>
<path style="fill:#c27ed6;" d="M295.151,138.973c113.023,0,183.065,76.488,204.646,156.715
	c24.636,91.584-47.496,171.211-204.646,171.211S65.868,387.271,90.505,295.688C112.086,215.461,182.127,138.973,295.151,138.973z"/>
<path style="opacity:0.1;enable-background:new    ;" d="M295.151,138.973c-28.624,0-54.486,4.913-77.507,13.543
	c3.918,5.952,10.655,9.883,18.313,9.883h118.389c7.658,0,14.396-3.931,18.313-9.883
	C349.637,143.886,323.774,138.973,295.151,138.973z"/>
<path style="opacity:0.1;enable-background:new    ;" d="M325.504,438.067c-157.15,0-229.283-79.627-204.646-171.211
	c8.174-30.387,23.306-60.232,45.086-85.592c-38.461,29.643-63.891,71.496-75.44,114.425C65.867,387.272,138,466.899,295.15,466.899
	c92.282,0,155.231-27.464,186.499-68.677C446.43,422.91,394.059,438.067,325.504,438.067z"/>
<path style="fill:#AA715F;" d="M346.175,147.916H244.127c-10.432,0-18.888-8.456-18.888-18.888l0,0
	c0-10.432,8.456-18.888,18.888-18.888h102.047c10.432,0,18.888,8.456,18.888,18.888l0,0
	C365.062,139.46,356.605,147.916,346.175,147.916z"/>
<path style="opacity:0.1;enable-background:new    ;" d="M270.599,110.141l-35.488,35.488c2.679,1.459,5.751,2.288,9.016,2.288
	h9.289l37.776-37.776C291.193,110.141,270.599,110.141,270.599,110.141z M346.175,110.141h-17.543l-37.777,37.776h20.594
	l37.544-37.543C348.071,110.235,347.135,110.141,346.175,110.141z"/>
<path style="opacity:0.1;enable-background:new    ;" d="M354.696,140.066H252.65c-10.432,0-18.888-8.456-18.888-18.888
	c0-3.376,0.896-6.537,2.448-9.28c-6.471,2.996-10.971,9.53-10.971,17.131c0,10.432,8.456,18.888,18.888,18.888h102.046
	c7.055,0,13.197-3.876,16.44-9.607C360.203,139.425,357.527,140.066,354.696,140.066z"/>
<path style="fill:#E86478;" d="M191.308,352.191H21.971v105.627c0,5.014,4.065,9.079,9.079,9.079h151.177
	c5.014,0,9.079-4.065,9.079-9.079V352.191H191.308z"/>
<g>
	<path style="fill:#F8CA4F;" d="M78.03,352.191L21.971,408.25v38.971l95.031-95.031H78.03V352.191z M80.064,466.898h38.971
		l72.273-72.274v-38.971L80.064,466.898z"/>
	<path style="fill:#F8CA4F;" d="M36.802,263.719c-11.184,11.184-11.184,29.315,0,40.499c21.005,21.005,48.296,28.146,69.308,28.807
		c-0.661-21.011-7.803-48.302-28.808-69.307C66.117,252.535,47.985,252.535,36.802,263.719z"/>
</g>
<path style="opacity:0.1;enable-background:new    ;" d="M68.001,288.446c-7.62-7.62-19.976-7.62-27.596,0
	c-3.716,3.716-5.608,8.559-5.698,13.43c0.65,0.809,1.345,1.592,2.096,2.343c15.137,15.137,33.539,23.073,50.502,26.574
	C85.983,317.305,80.739,301.184,68.001,288.446z"/>
<path style="fill:#F8CA4F;" d="M176.477,263.719c11.184,11.184,11.184,29.315,0,40.499c-21.005,21.005-48.296,28.146-69.308,28.807
	c0.661-21.011,7.803-48.302,28.807-69.307C147.161,252.535,165.294,252.535,176.477,263.719z"/>
<path style="opacity:0.1;enable-background:new    ;" d="M145.277,288.446c7.62-7.62,19.976-7.62,27.596,0
	c3.716,3.716,5.608,8.559,5.698,13.43c-0.649,0.809-1.345,1.592-2.096,2.343c-15.137,15.137-33.539,23.073-50.502,26.574
	C127.295,317.305,132.541,301.184,145.277,288.446z"/>
<path style="fill:#E86478;" d="M196.825,352.191H16.454c-4.945,0-8.953-4.008-8.953-8.953v-28.093c0-4.945,4.008-8.953,8.953-8.953
	h180.371c4.945,0,8.953,4.008,8.953,8.953v28.093C205.778,348.182,201.77,352.191,196.825,352.191z"/>
<rect x="21.971" y="352.188" style="opacity:0.1;enable-background:new    ;" width="169.339" height="14.904"/>
<path style="fill:#485458;" d="M315.544,244.509c0,12.233-10.134,22.098-22.463,21.659c-11.745-0.418-20.883-10.427-20.883-22.179
	v-15.245c0-3.264,2.646-5.909,5.909-5.909h31.528c3.264,0,5.909,2.646,5.909,5.909V244.509z"/>
<path d="M507.04,293.739c-9.498-35.311-27.425-67.946-51.844-94.381c-23.851-25.821-53.62-45.093-86.708-56.268
	c2.577-4.074,4.075-8.895,4.075-14.063c0-14.528-11.802-26.349-26.32-26.386l10.734-33.576c2.708-8.472,0.551-17.709-5.631-24.104
	c-6.181-6.395-15.335-8.866-23.898-6.447c-21.128,5.97-43.462,5.97-64.592,0c-8.554-2.417-17.715,0.052-23.897,6.447
	s-8.339,15.632-5.631,24.104l10.734,33.576c-14.519,0.037-26.319,11.859-26.319,26.386c0,5.167,1.499,9.989,4.076,14.063
	c-11.947,4.021-23.462,9.072-34.36,15.101c-3.625,2.005-4.938,6.569-2.933,10.194c1.368,2.474,3.929,3.871,6.569,3.871
	c1.228,0,2.474-0.302,3.623-0.939c13.077-7.233,27.12-12.947,41.761-17.037c2.423,0.736,4.991,1.135,7.65,1.135h4.934
	c-3.264,3.974-6.247,8.307-7.78,12.33c-1.475,3.871,0.468,8.204,4.338,9.679c0.879,0.335,1.782,0.494,2.67,0.494
	c3.021,0,5.869-1.84,7.01-4.832c1.486-3.9,7.346-11.08,14.33-17.67h18.021v9.33c0,4.142,3.357,7.5,7.5,7.5s7.5-3.358,7.5-7.5v-9.33
	h18.021c6.983,6.59,12.843,13.771,14.33,17.67c1.141,2.992,3.988,4.832,7.01,4.832c0.888,0,1.791-0.159,2.67-0.494
	c3.87-1.475,5.813-5.808,4.338-9.679c-1.533-4.022-4.516-8.354-7.78-12.33h4.934c2.661,0,5.229-0.4,7.653-1.136
	c35.113,9.797,65.508,28.362,90.35,55.256c22.777,24.659,39.506,55.124,48.377,88.099c5.258,19.549,5.888,38.449,1.871,56.174
	c-4.009,17.693-12.564,33.816-25.428,47.916c-2.791,3.061-2.573,7.804,0.486,10.597c1.438,1.312,3.248,1.959,5.053,1.959
	c2.035,0,4.064-0.824,5.543-2.445C509.327,379.775,518.901,337.834,507.04,293.739z M249.743,55.387
	c2.372-2.454,5.749-3.363,9.033-2.437c23.796,6.725,48.953,6.725,72.75,0c3.289-0.929,6.662-0.017,9.033,2.437
	c2.372,2.454,3.168,5.86,2.129,9.111l-12.194,38.142h-70.689l-12.194-38.142C246.574,61.248,247.37,57.841,249.743,55.387z
	 M346.174,140.417h-50.995c-0.01,0-0.019-0.002-0.029-0.002c-0.01,0-0.019,0.002-0.029,0.002h-50.994
	c-6.278,0-11.388-5.108-11.388-11.388s5.108-11.388,11.388-11.388h10.217c0.024,0,0.049,0,0.073,0h81.531
	c0.009,0,0.017,0.002,0.025,0.002s0.016-0.002,0.025-0.002h10.177c6.279,0,11.389,5.108,11.389,11.388
	C357.562,135.307,352.453,140.417,346.174,140.417z M380.003,234.684v-12.84c0-4.142-3.357-7.5-7.5-7.5s-7.5,3.358-7.5,7.5v12.84
	c0,4.142,3.357,7.5,7.5,7.5S380.003,238.827,380.003,234.684z M225.298,234.684v-12.84c0-4.142-3.357-7.5-7.5-7.5
	s-7.5,3.358-7.5,7.5v12.84c0,4.142,3.357,7.5,7.5,7.5C221.941,242.185,225.298,238.827,225.298,234.684z M293.887,273.682
	c7.599,0,14.752-2.881,20.241-8.179c5.75-5.549,8.916-13.005,8.916-20.994v-15.764c0-7.394-6.016-13.41-13.41-13.41h-31.528
	c-7.394,0-13.41,6.015-13.41,13.41v15.245c0,15.812,12.613,29.123,28.116,29.674C293.172,273.676,293.531,273.682,293.887,273.682z
	 M279.698,243.989v-13.654h28.346v14.173c0,3.881-1.539,7.503-4.332,10.201c-2.793,2.694-6.476,4.094-10.365,3.963
	C285.822,258.406,279.698,251.818,279.698,243.989z M441.708,424.459c-35.665,22.857-86.344,34.94-146.558,34.94
	c-35.918,0-68.293-4.234-96.343-12.588v-87.25c8.139-0.984,14.472-7.922,14.472-16.323v-28.093c0-9.072-7.381-16.454-16.454-16.454
	h-7.602c5.904-13.275,3.429-29.402-7.442-40.275c-14.091-14.089-37.017-14.089-51.106,0c-10.669,10.668-18.726,23.468-24.036,38.124
	c-1.458-4.024-3.117-7.911-4.988-11.65c12.165-36.034,33.32-67.662,61.369-91.597c3.151-2.688,3.525-7.422,0.837-10.574
	c-2.688-3.151-7.422-3.527-10.574-0.837c-27.119,23.141-48.246,52.935-61.698,86.826c-2.753-3.62-5.744-7.056-8.98-10.293
	c-6.825-6.825-15.9-10.585-25.553-10.585s-18.729,3.759-25.554,10.585c-10.871,10.872-13.346,27-7.441,40.275h-7.602
	C7.381,298.69,0,306.071,0,315.144v28.093c0,8.4,6.331,15.338,14.471,16.323v98.259c0,9.142,7.438,16.58,16.581,16.58h151.177
	c7.61,0,14.024-5.161,15.964-12.163c28.576,8.064,61.129,12.163,96.959,12.163c32.208,0,61.929-3.314,88.34-9.85
	c25.366-6.278,47.677-15.517,66.312-27.459c3.487-2.235,4.503-6.874,2.268-10.362C449.837,423.239,445.196,422.225,441.708,424.459z
	 M141.282,269.022c8.242-8.24,21.652-8.239,29.892,0c3.692,3.692,5.717,8.422,6.101,13.259c-4.986-4.555-11.4-7.051-18.198-7.051
	c-7.216,0-14.001,2.81-19.103,7.912c-4.582,4.582-8.508,9.803-11.736,15.547h-6.366
	C126.413,287.346,132.912,277.394,141.282,269.022z M170.543,298.69h-24.331c1.363-1.735,2.817-3.387,4.37-4.94
	c2.269-2.269,5.285-3.519,8.494-3.519c3.209,0,6.225,1.25,8.494,3.518C168.968,295.147,169.976,296.84,170.543,298.69z
	 M42.106,269.022c8.239-8.24,21.651-8.242,29.892,0c5.856,5.855,10.794,12.487,14.79,19.823c0.098,0.198,0.205,0.391,0.32,0.579
	c1.591,2.973,3.02,6.066,4.3,9.265h-6.366c-3.227-5.744-7.153-10.965-11.736-15.547c-5.103-5.102-11.887-7.912-19.103-7.912
	c-6.798,0-13.212,2.496-18.198,7.051C36.389,277.445,38.413,272.714,42.106,269.022z M67.067,298.69H42.736
	c0.567-1.85,1.575-3.544,2.972-4.94c2.269-2.269,5.285-3.519,8.494-3.519c3.209,0,6.226,1.25,8.494,3.519
	C64.25,295.303,65.703,296.956,67.067,298.69z M31.052,459.398c-0.871,0-1.58-0.708-1.58-1.579v-7.49l53.56-53.56
	c2.929-2.929,2.929-7.678,0-10.607c-2.93-2.929-7.678-2.929-10.608,0l-42.951,42.952v-17.756l51.667-51.667h17.757l-3.374,3.374
	c-2.929,2.929-2.929,7.678,0,10.607c1.465,1.464,3.385,2.197,5.304,2.197s3.839-0.732,5.304-2.197l13.981-13.981h56.554
	l-99.706,99.707L31.052,459.398L31.052,459.398z M29.471,390.142v-30.452h30.452L29.471,390.142z M183.807,452.237
	c0,0.026,0,0.051,0,0.077v5.504c0,0.871-0.708,1.579-1.579,1.579h-45.085l46.664-46.664L183.807,452.237L183.807,452.237z
	 M183.807,391.518l-67.878,67.879H98.171l85.635-85.636v17.757H183.807z M198.279,343.238c0,0.801-0.652,1.453-1.453,1.453H16.454
	c-0.801,0-1.453-0.652-1.453-1.453v-28.093c0-0.801,0.652-1.453,1.453-1.453h64.032c0.009,0,0.019,0.002,0.028,0.002
	c0.012,0,0.024-0.002,0.035-0.002h21.319c0.008,0,0.016,0.002,0.024,0.002c0.009,0,0.019-0.002,0.028-0.002h9.439
	c0.009,0,0.019,0.002,0.028,0.002c0.008,0,0.016-0.002,0.024-0.002h21.319c0.012,0,0.024,0.002,0.035,0.002
	c0.009,0,0.018-0.002,0.028-0.002h64.032c0.801,0,1.453,0.652,1.453,1.453L198.279,343.238L198.279,343.238z"/>
<g>
</g>
<g>
</g>
<g>
</g>
<g>
</g>
<g>
</g>
<g>
</g>
<g>
</g>
<g>
</g>
<g>
</g>
<g>
</g>
<g>
</g>
<g>
</g>
<g>
</g>
<g>
</g>
<g>
</g>
</svg>
