<?xml version="1.0" encoding="iso-8859-1"?>
<!-- Generator: Adobe Illustrator 19.0.0, SVG Export Plug-In . SVG Version: 6.00 Build 0)  -->
<svg version="1.1" id="Capa_1" xmlns="http://www.w3.org/2000/svg" xmlns:xlink="http://www.w3.org/1999/xlink" x="0px" y="0px"
	 viewBox="0 0 512 512" style="enable-background:new 0 0 512 512;" xml:space="preserve">
<path style="fill:#F8CA4F;" d="M255.999,131.621h-98.058c-34.275,0-62.06-27.785-62.06-62.06l0,0c0-34.275,27.785-62.06,62.06-62.06
	l0,0c54.156-0.001,98.058,43.901,98.058,98.057V131.621z"/>
<path style="opacity:0.05;enable-background:new    ;" d="M255.999,131.621h-98.058c-34.275,0-62.06-27.785-62.06-62.06l0,0
	c0-34.275,27.785-62.06,62.06-62.06l0,0c54.156-0.001,98.058,43.901,98.058,98.057V131.621z"/>
<g style="opacity:0.1;">
	<path d="M236.164,139.122c-3.666,0-6.871-2.691-7.413-6.425c-3.566-24.606-31.435-54.181-49.335-65.217
		c-3.525-2.174-4.621-6.794-2.447-10.32c2.173-3.525,6.793-4.622,10.32-2.447c30.737,18.95,53.16,54.118,56.308,75.832
		c0.594,4.1-2.248,7.904-6.347,8.499C236.885,139.097,236.522,139.122,236.164,139.122z"/>
	<path d="M236.171,139.121c-1.773,0-3.552-0.625-4.982-1.895c-26.157-23.262-63.672-31.644-82.788-31.644
		c-0.137,0-0.257-0.002-0.404,0.001c-4.123,0-7.475-3.33-7.499-7.458c-0.023-4.142,3.316-7.519,7.458-7.542
		c18.347-0.096,61.42,7.171,93.202,35.434c3.095,2.753,3.373,7.493,0.62,10.589C240.297,138.271,238.238,139.121,236.171,139.121z"
		/>
</g>
<path style="fill:#F8CA4F;" d="M255.999,131.621h98.058c34.275,0,62.06-27.785,62.06-62.06l0,0c0-34.275-27.785-62.06-62.06-62.06
	l0,0c-54.156-0.001-98.058,43.901-98.058,98.057V131.621z"/>
<path style="opacity:0.05;enable-background:new    ;" d="M255.999,131.621h98.058c34.275,0,62.06-27.785,62.06-62.06l0,0
	c0-34.275-27.785-62.06-62.06-62.06l0,0c-54.156-0.001-98.058,43.901-98.058,98.057V131.621z"/>
<g style="opacity:0.1;">
	<path d="M275.834,139.122c-0.358,0-0.721-0.025-1.086-0.078c-4.099-0.595-6.94-4.399-6.347-8.499
		c3.147-21.714,25.57-56.882,56.308-75.832c3.527-2.175,8.147-1.078,10.32,2.447c2.174,3.526,1.078,8.146-2.447,10.32
		c-17.9,11.036-45.768,40.61-49.335,65.217C282.705,136.432,279.499,139.122,275.834,139.122z"/>
	<path d="M275.827,139.121c-2.067,0-4.125-0.85-5.607-2.516c-2.753-3.096-2.475-7.836,0.62-10.589
		c31.562-28.066,74.266-35.435,92.817-35.435c0.13,0,0.257,0,0.385,0.001c4.142,0.023,7.481,3.4,7.458,7.542
		c-0.023,4.128-3.377,7.458-7.499,7.458c-0.132,0.003-0.268-0.001-0.404-0.001c-19.115,0-56.629,8.381-82.788,31.644
		C279.379,138.496,277.6,139.121,275.827,139.121z"/>
</g>
<path style="fill:#61C6AD;" d="M445.896,215.529H66.102c-10.512,0-19.034-8.522-19.034-19.034v-45.841
	c0-10.512,8.522-19.034,19.034-19.034h379.794c10.512,0,19.034,8.522,19.034,19.034v45.841
	C464.93,207.008,456.408,215.529,445.896,215.529z"/>
<rect x="211.359" y="131.62" style="fill:#F8CA4F;" width="89.28" height="83.91"/>
<path style="fill:#61C6AD;" d="M398.71,504.5H113.288c-14.964,0-27.095-12.131-27.095-27.095V215.529h339.612v261.876
	C425.805,492.369,413.674,504.5,398.71,504.5z"/>
<g style="opacity:0.4;">
	<circle style="fill:#FFFFFF;" cx="321.429" cy="418.19" r="42.571"/>
	<circle style="fill:#FFFFFF;" cx="153.849" cy="314.56" r="42.571"/>
	<path style="fill:#FFFFFF;" d="M114.194,436.88c-10.725,0-20.515,3.975-28.001,10.519v30.006c0,14.964,12.131,27.095,27.095,27.095
		h35.321c5.125-7.03,8.157-15.683,8.157-25.048C156.765,455.94,137.705,436.88,114.194,436.88z"/>
	<path style="fill:#FFFFFF;" d="M399.583,244.32c-23.512,0-42.571,19.06-42.571,42.571s19.06,42.571,42.571,42.571
		c9.894,0,18.993-3.385,26.222-9.048v-67.048C418.576,247.705,409.477,244.32,399.583,244.32z"/>
</g>
<rect x="220.329" y="215.53" style="fill:#F8CA4F;" width="71.35" height="288.97"/>
<rect x="86.189" y="215.53" style="opacity:0.1;enable-background:new    ;" width="339.61" height="40.471"/>
<path d="M181.63,178.404c4.143,0,7.5-3.357,7.5-7.5V158.56c0-4.143-3.357-7.5-7.5-7.5s-7.5,3.357-7.5,7.5v12.345
	C174.13,175.047,177.487,178.404,181.63,178.404z M330.368,151.06c-4.143,0-7.5,3.357-7.5,7.5v12.345c0,4.143,3.357,7.5,7.5,7.5
	s7.5-3.357,7.5-7.5V158.56C337.868,154.417,334.511,151.06,330.368,151.06z M445.896,124.121h-48.769
	c16.118-12.751,26.489-32.461,26.489-54.561C423.617,31.205,392.412,0,354.057,0c-44.382,0-82.449,27.534-98.03,66.416
	c-3.667-9.17-8.643-17.847-14.889-25.834c-2.554-3.264-7.268-3.84-10.528-1.288c-3.263,2.552-3.84,7.266-1.288,10.528
	c12.546,16.044,19.178,35.316,19.178,55.735v18.563h-90.558c-30.085,0-54.561-24.476-54.561-54.561s24.476-54.561,54.561-54.561
	c15.113,0,30.068,3.795,43.25,10.974c3.637,1.985,8.192,0.64,10.173-2.999c1.981-3.637,0.639-8.192-2.999-10.173
	C192.99,4.427,175.554,0,157.941,0C119.586,0,88.38,31.205,88.38,69.561c0,22.099,10.372,41.81,26.489,54.561H66.102
	c-14.631,0-26.533,11.902-26.533,26.533v45.841c0,14.631,11.902,26.534,26.533,26.534h12.592v148.985c0,4.143,3.358,7.5,7.5,7.5
	c4.143,0,7.5-3.357,7.5-7.5V223.029h119.133V497h-99.538c-10.805,0-19.595-8.79-19.595-19.595V414.34c0-4.143-3.357-7.5-7.5-7.5
	c-4.142,0-7.5,3.357-7.5,7.5v63.065c0,19.075,15.52,34.595,34.595,34.595h285.422c19.075,0,34.595-15.52,34.595-34.595V223.029
	h12.592c14.631,0,26.533-11.903,26.533-26.534v-45.841C472.43,136.023,460.527,124.121,445.896,124.121z M203.858,208.029H66.102
	c-6.359,0-11.533-5.174-11.533-11.534v-45.841c0-6.359,5.174-11.533,11.533-11.533h137.757v68.908H203.858z M263.499,105.558
	c0-49.934,40.624-90.558,90.558-90.558c30.085,0,54.561,24.476,54.561,54.561s-24.476,54.561-54.561,54.561h-90.558V105.558z
	 M284.172,497h-56.346V223.029h56.346V497z M293.14,208.029h-74.281v-68.908h74.281V208.029z M457.43,196.495
	c0,6.36-5.174,11.534-11.533,11.534h-39.928c-4.143,0-7.5,3.357-7.5,7.5s3.357,7.5,7.5,7.5h12.336v254.376
	c0,10.805-8.79,19.595-19.595,19.595h-99.538V223.029h68.893c4.143,0,7.5-3.357,7.5-7.5s-3.357-7.5-7.5-7.5h-59.926v-68.908h137.757
	c6.359,0,11.533,5.174,11.533,11.533L457.43,196.495L457.43,196.495z M255.999,187.885c9.683,0,18.89-4.193,25.262-11.505
	c2.722-3.123,2.396-7.86-0.727-10.582c-3.125-2.722-7.862-2.396-10.582,0.727c-3.522,4.042-8.608,6.36-13.953,6.36
	s-10.431-2.318-13.953-6.36c-2.723-3.122-7.46-3.447-10.582-0.727c-3.122,2.722-3.448,7.459-0.727,10.582
	C237.109,183.691,246.316,187.885,255.999,187.885z"/>
<g>
</g>
<g>
</g>
<g>
</g>
<g>
</g>
<g>
</g>
<g>
</g>
<g>
</g>
<g>
</g>
<g>
</g>
<g>
</g>
<g>
</g>
<g>
</g>
<g>
</g>
<g>
</g>
<g>
</g>
</svg>
