<?xml version="1.0" encoding="iso-8859-1"?>
<!-- Generator: Adobe Illustrator 19.0.0, SVG Export Plug-In . SVG Version: 6.00 Build 0)  -->
<svg version="1.1" id="Capa_1" xmlns="http://www.w3.org/2000/svg" xmlns:xlink="http://www.w3.org/1999/xlink" x="0px" y="0px"
	 viewBox="0 0 511.997 511.997" style="enable-background:new 0 0 511.997 511.997;" xml:space="preserve">
<path style="fill:#AA715F;" d="M426.759,223.445h-82.871c-4.914,0-7.283-5.953-3.767-9.386
	c22.539-22.01,36.477-52.786,36.291-86.821C376.054,61.986,323.014,8.447,257.767,7.51c-67.314-0.966-122.183,53.31-122.183,120.402
	c0,33.797,13.927,64.336,36.352,86.204c3.49,3.404,1.054,9.329-3.822,9.329H85.239c-23.475,0-43.058,19.211-42.589,42.682
	c0.454,22.708,19.004,40.977,41.821,40.977h66.29c7.677,0,13.9,6.223,13.9,13.9l0,0c0,0.143,0,0.286,0.001,0.43
	c0.207,25.702-3.152,51.307-10.764,75.857l-16.199,52.241c-6.844,22.071,5.02,45.978,27.04,52.984
	c4.223,1.344,8.495,1.981,12.698,1.981c17.844,0,34.377-11.513,39.94-29.452l18.825-60.709c0.681-2.197,2.878-3.533,5.149-3.167
	c4.77,0.77,9.663,1.172,14.65,1.172c4.988,0,9.881-0.402,14.651-1.172c2.271-0.367,4.467,0.969,5.149,3.167l18.824,60.709
	c5.563,17.94,22.094,29.452,39.94,29.452c4.226,0,8.526-0.645,12.772-2.004c21.979-7.036,33.8-30.918,26.965-52.96l-15.982-51.544
	c-7.678-24.762-11.155-50.581-10.981-76.504c0.001-0.16,0.001-0.32,0.001-0.48l0,0c0-7.677,6.223-13.9,13.9-13.9h66.29
	c22.817,0,41.367-18.269,41.821-40.977C469.817,242.657,450.234,223.445,426.759,223.445z"/>
<path style="opacity:0.1;enable-background:new    ;" d="M101.443,223.445H85.239c-23.475,0-43.058,19.211-42.589,42.682
	c0.454,22.708,19.004,40.977,41.821,40.977h16.204c-22.817,0-41.367-18.269-41.821-40.977
	C58.385,242.657,77.968,223.445,101.443,223.445z M310.827,475.046l-19.348-62.427c-0.681-2.197-2.878-3.533-5.149-3.167
	c-3.729,0.602-10.36,1.467-14.659,1.678c1.879,0.111,3.549,1.343,4.127,3.207l18.824,60.709c5.563,17.94,22.094,29.452,39.94,29.452
	c2.682,0,5.395-0.262,8.104-0.8C328.098,500.804,315.535,490.228,310.827,475.046z M153.902,449.533l16.199-52.241
	c7.612-24.549,10.972-50.155,10.764-75.857c-0.001-0.143-0.001-0.287-0.001-0.43c0-7.677-6.223-13.9-13.9-13.9H150.76
	c7.677,0,13.9,6.223,13.9,13.9c0,0.143,0,0.286,0.001,0.43c0.207,25.702-3.152,51.307-10.764,75.857l-16.199,52.241
	c-6.844,22.071,5.02,45.978,27.04,52.984c4.223,1.343,8.495,1.981,12.698,1.981c2.743,0,5.455-0.274,8.101-0.8
	c-1.534-0.304-3.068-0.695-4.594-1.181C158.922,495.51,147.059,471.604,153.902,449.533z M264.104,7.771
	c-2.099-0.141-4.211-0.23-6.337-0.261c-67.314-0.966-122.183,53.31-122.183,120.402c0,33.796,13.927,64.336,36.352,86.204
	c3.49,3.404,1.054,9.329-3.822,9.329h16.204c4.875,0,7.312-5.925,3.822-9.329c-22.424-21.868-36.352-52.408-36.352-86.204
	C151.788,64.131,201.378,11.937,264.104,7.771z"/>
<circle style="opacity:0.1;enable-background:new    ;" cx="250.519" cy="264.538" r="23.924"/>
<circle style="opacity:0.1;enable-background:new    ;" cx="250.519" cy="342.968" r="23.924"/>
<g>
	<path style="fill:#EEEDED;" d="M102.96,314.605c-2.261,0-4.494-1.017-5.971-2.954c-8.298-10.886-8.298-26.092,0-36.979
		c4.217-5.533,4.217-13.261,0-18.793c-8.298-10.886-8.298-26.093,0-36.979c2.51-3.294,7.217-3.93,10.512-1.419
		c3.294,2.511,3.929,7.217,1.418,10.511c-4.217,5.533-4.217,13.261,0,18.794c8.298,10.887,8.298,26.093,0,36.979
		c-4.217,5.533-4.217,13.261,0,18.794c2.511,3.294,1.876,8-1.418,10.511C106.142,314.104,104.545,314.605,102.96,314.605z"/>
	<path style="fill:#EEEDED;" d="M409.038,314.605c-1.585,0-3.183-0.5-4.541-1.536c-3.294-2.511-3.929-7.217-1.418-10.511
		c4.217-5.533,4.217-13.261,0-18.794c-8.298-10.886-8.298-26.092,0-36.979c4.217-5.533,4.217-13.261,0-18.794
		c-2.511-3.294-1.876-8,1.418-10.511c3.297-2.51,8.001-1.876,10.512,1.419c8.298,10.886,8.298,26.093,0,36.979
		c-4.217,5.533-4.217,13.261,0,18.793c8.298,10.887,8.298,26.093,0,36.979C413.533,313.587,411.299,314.605,409.038,314.605z"/>
	<path style="fill:#EEEDED;" d="M222.915,464.642c-2.229,0-4.436-0.99-5.914-2.882c-4.284-5.482-11.76-7.439-18.181-4.762
		c-12.633,5.268-27.343,1.417-35.772-9.37c-4.283-5.481-11.759-7.439-18.18-4.762c-3.822,1.595-8.214-0.212-9.809-4.035
		s0.212-8.215,4.035-9.809c12.631-5.27,27.343-1.417,35.771,9.37c4.285,5.483,11.762,7.44,18.181,4.762
		c12.631-5.271,27.345-1.417,35.772,9.37c2.551,3.264,1.973,7.978-1.291,10.528C226.157,464.123,224.53,464.642,222.915,464.642z"/>
	<path style="fill:#EEEDED;" d="M289.083,464.642c-1.615,0-3.242-0.52-4.613-1.591c-3.264-2.55-3.842-7.264-1.291-10.528
		c8.428-10.786,23.141-14.639,35.772-9.37c6.42,2.677,13.896,0.72,18.181-4.762c8.429-10.786,23.138-14.641,35.772-9.37
		c3.823,1.594,5.63,5.986,4.035,9.809c-1.595,3.824-5.988,5.629-9.809,4.035c-6.421-2.676-13.896-0.72-18.18,4.762
		c-8.43,10.786-23.14,14.64-35.773,9.37c-6.421-2.675-13.895-0.72-18.181,4.762C293.518,463.652,291.311,464.642,289.083,464.642z"
		/>
</g>
<circle style="fill:#F8CA4F;" cx="255.999" cy="259.058" r="23.924"/>
<path style="opacity:0.1;enable-background:new    ;" d="M259.388,279.402c-13.213,0-23.924-10.711-23.924-23.924
	c0-5.483,1.849-10.532,4.951-14.566c-5.104,4.387-8.34,10.886-8.34,18.144c0,13.213,10.711,23.924,23.924,23.924
	c7.73,0,14.6-3.669,18.973-9.358C270.785,277.222,265.343,279.402,259.388,279.402z"/>
<circle style="fill:#F8CA4F;" cx="255.999" cy="337.488" r="23.924"/>
<path style="opacity:0.1;enable-background:new    ;" d="M259.388,357.835c-13.213,0-23.924-10.711-23.924-23.924
	c0-5.483,1.849-10.532,4.951-14.566c-5.104,4.388-8.34,10.886-8.34,18.144c0,13.213,10.711,23.924,23.924,23.924
	c7.73,0,14.6-3.669,18.973-9.358C270.785,355.654,265.343,357.835,259.388,357.835z"/>
<g style="opacity:0.1;">
	<circle cx="156.419" cy="265.278" r="7.483"/>
	<circle cx="313.819" cy="376.778" r="7.483"/>
	<circle cx="232.079" cy="40.866" r="7.483"/>
	<circle cx="304.399" cy="199.518" r="7.483"/>
	<circle cx="210.279" cy="214.488" r="7.483"/>
	<circle cx="353.069" cy="277.158" r="7.483"/>
	<circle cx="194.539" cy="395.258" r="7.483"/>
</g>
<path d="M309.962,108.614v10.203c0,4.142,3.357,7.5,7.5,7.5s7.5-3.358,7.5-7.5v-10.203c0-4.142-3.357-7.5-7.5-7.5
	S309.962,104.472,309.962,108.614z M255.999,227.631c-17.327,0-31.424,14.097-31.424,31.424s14.097,31.424,31.424,31.424
	s31.424-14.097,31.424-31.424S273.326,227.631,255.999,227.631z M255.999,275.48c-9.056,0-16.424-7.368-16.424-16.424
	c0-9.057,7.368-16.424,16.424-16.424s16.424,7.368,16.424,16.424C272.423,268.112,265.055,275.48,255.999,275.48z M157.161,321.004
	l0.001,0.49c0.139,17.199-1.383,34.056-4.523,50.101c-0.796,4.065,1.855,8.005,5.92,8.801c0.486,0.095,0.971,0.141,1.448,0.141
	c3.515,0,6.652-2.482,7.353-6.061c3.333-17.032,4.949-34.898,4.803-53.093l-0.001-0.379c0-11.8-9.601-21.4-21.4-21.4h-66.29
	c-18.555,0-33.952-15.085-34.323-33.627c-0.181-9.081,3.301-17.735,9.803-24.368c6.643-6.777,15.86-10.663,25.289-10.663h82.875
	c5.294,0,10.005-3.17,12.001-8.076c1.991-4.894,0.836-10.436-2.943-14.122c-21.982-21.437-34.088-50.145-34.088-80.835
	c0-30.467,11.951-59.026,33.65-80.417c21.696-21.387,50.467-32.917,80.926-32.486c29.298,0.42,56.964,12.137,77.901,32.99
	c2.934,2.922,7.683,2.914,10.606-0.021c2.924-2.935,2.914-7.684-0.021-10.606c-23.711-23.616-55.06-36.884-88.272-37.36
	c-34.529-0.49-67.093,12.574-91.671,36.802c-24.582,24.232-38.12,56.585-38.12,91.1c0,33.104,12.434,64.173,35.119,88.033H85.239
	c-13.434,0-26.555,5.527-36.001,15.163c-9.347,9.536-14.35,22.025-14.087,35.169c0.259,12.966,5.504,25.115,14.77,34.207
	c9.278,9.105,21.548,14.12,34.55,14.12h66.29C154.29,314.605,157.161,317.476,157.161,321.004z M365.48,395.767
	c-2.862-9.231-5.182-18.844-6.892-28.573c-0.718-4.079-4.609-6.805-8.686-6.087c-4.08,0.718-6.806,4.606-6.088,8.686
	c1.82,10.35,4.29,20.584,7.34,30.417l15.982,51.544c5.681,18.321-4.229,37.879-22.089,43.596c-3.415,1.093-6.942,1.647-10.485,1.647
	c-15.121,0-28.293-9.714-32.776-24.173l-18.824-60.708c-1.772-5.718-7.573-9.308-13.508-8.351c-8.849,1.429-18.059,1.429-26.909,0
	c-5.93-0.957-11.734,2.632-13.508,8.35l-18.826,60.71c-4.483,14.458-17.654,24.173-32.776,24.173c-3.521,0-7.028-0.548-10.423-1.628
	c-17.905-5.697-27.842-25.263-22.151-43.616l13.528-43.626c1.228-3.956-0.985-8.158-4.941-9.385
	c-3.962-1.228-8.158,0.986-9.385,4.942l-13.528,43.625c-8.123,26.195,6.201,54.166,31.929,62.353
	c4.867,1.549,9.904,2.334,14.972,2.334c21.733,0,40.663-13.957,47.103-34.73l18.087-58.326c8.84,1.197,17.908,1.197,26.748,0
	l18.087,58.326c6.441,20.773,25.37,34.73,47.103,34.73c5.097,0,10.163-0.794,15.059-2.361c25.666-8.217,39.95-36.175,31.842-62.325
	L365.48,395.767z M462.759,231.108c-9.446-9.636-22.567-15.163-36.001-15.163h-77.964c22.865-24.047,35.3-55.373,35.117-88.748
	c-0.115-21.091-5.546-42.015-15.704-60.509c-1.993-3.63-6.552-4.956-10.184-2.963c-3.631,1.994-4.957,6.554-2.963,10.185
	c8.96,16.313,13.749,34.768,13.851,53.37c0.17,30.905-11.916,59.818-34.031,81.414c-3.806,3.716-4.972,9.294-2.97,14.208
	c1.99,4.886,6.691,8.044,11.977,8.044h82.871c9.429,0,18.646,3.887,25.289,10.663c6.502,6.633,9.983,15.288,9.803,24.368
	c-0.371,18.542-15.769,33.627-34.323,33.627h-66.29c-11.8,0-21.4,9.6-21.4,21.4l-0.001,0.43c-0.03,4.529,0.05,9.095,0.238,13.573
	c0.169,4.031,3.49,7.185,7.487,7.185c0.106,0,0.213-0.002,0.32-0.007c4.139-0.173,7.353-3.669,7.179-7.808
	c-0.178-4.236-0.253-8.557-0.225-12.849l0.001-0.525c0-3.529,2.871-6.4,6.4-6.4h66.29c13.002,0,25.272-5.015,34.55-14.121
	c9.266-9.092,14.511-21.241,14.77-34.207C477.109,253.134,472.106,240.644,462.759,231.108z M187.036,108.614v10.203
	c0,4.142,3.357,7.5,7.5,7.5s7.5-3.358,7.5-7.5v-10.203c0-4.142-3.357-7.5-7.5-7.5S187.036,104.472,187.036,108.614z
	 M255.999,306.064c-17.327,0-31.424,14.097-31.424,31.424c0,17.328,14.097,31.424,31.424,31.424s31.424-14.097,31.424-31.424
	C287.423,320.161,273.326,306.064,255.999,306.064z M255.999,353.913c-9.056,0-16.424-7.368-16.424-16.424
	c0-9.057,7.368-16.424,16.424-16.424s16.424,7.368,16.424,16.424S265.055,353.913,255.999,353.913z M255.999,134.151
	c8.379,0,16.346-3.628,21.858-9.955c2.722-3.123,2.395-7.86-0.728-10.582s-7.86-2.396-10.581,0.727
	c-2.663,3.057-6.509,4.81-10.55,4.81s-7.887-1.753-10.55-4.81c-2.721-3.123-7.46-3.448-10.581-0.727
	c-3.123,2.721-3.449,7.459-0.728,10.582C239.653,130.523,247.62,134.151,255.999,134.151z"/>
<g>
</g>
<g>
</g>
<g>
</g>
<g>
</g>
<g>
</g>
<g>
</g>
<g>
</g>
<g>
</g>
<g>
</g>
<g>
</g>
<g>
</g>
<g>
</g>
<g>
</g>
<g>
</g>
<g>
</g>
</svg>
