<?xml version="1.0" encoding="iso-8859-1"?>
<!-- Generator: Adobe Illustrator 19.0.0, SVG Export Plug-In . SVG Version: 6.00 Build 0)  -->
<svg version="1.1" id="Capa_1" xmlns="http://www.w3.org/2000/svg" xmlns:xlink="http://www.w3.org/1999/xlink" x="0px" y="0px"
	 viewBox="0 0 512 512" style="enable-background:new 0 0 512 512;" xml:space="preserve">
<path style="fill:#F8CA4F;" d="M255.999,152.511c-39.98,0-72.506-32.525-72.506-72.505c0-39.979,32.526-72.506,72.506-72.506
	s72.506,32.527,72.506,72.506C328.505,119.986,295.978,152.511,255.999,152.511z M255.999,39.019
	c-22.6,0-40.987,18.387-40.987,40.987s18.387,40.986,40.987,40.986s40.987-18.386,40.987-40.986S278.599,39.019,255.999,39.019z"/>
<path style="opacity:0.1;enable-background:new    ;" d="M255.999,152.511c-39.98,0-72.506-32.525-72.506-72.505
	c0-39.979,32.526-72.506,72.506-72.506s72.506,32.527,72.506,72.506C328.505,119.986,295.978,152.511,255.999,152.511z
	 M255.999,39.019c-22.6,0-40.987,18.387-40.987,40.987s18.387,40.986,40.987,40.986s40.987-18.386,40.987-40.986
	S278.599,39.019,255.999,39.019z"/>
<circle style="fill:#F8CA4F;" cx="255.999" cy="311.35" r="193.15"/>
<path style="opacity:0.15;enable-background:new    ;" d="M131.733,407.435c-13.48,0-25.169,7.644-30.987,18.83
	c13.403,18.077,29.89,33.727,48.68,46.182c10.304-6.07,17.222-17.273,17.222-30.098
	C166.649,423.067,151.017,407.435,131.733,407.435z"/>
<path style="opacity:0.15;enable-background:new    ;" d="M380.265,407.435c13.48,0,25.169,7.644,30.987,18.83
	c-13.403,18.077-29.89,33.727-48.68,46.182c-10.304-6.07-17.222-17.273-17.222-30.098
	C345.349,423.067,360.981,407.435,380.265,407.435z"/>
<path style="opacity:0.15;enable-background:new    ;" d="M255.999,381.955c-19.283,0-34.915,15.632-34.915,34.915
	c0,14.533,8.881,26.988,21.511,32.245v54.913c4.43,0.304,8.898,0.471,13.405,0.471c4.507,0,8.975-0.167,13.405-0.471v-54.913
	c12.63-5.257,21.511-17.712,21.511-32.245C290.914,397.587,275.282,381.955,255.999,381.955z"/>
<path style="opacity:0.1;enable-background:new    ;" d="M449.151,311.348c0-4.933-0.187-9.822-0.551-14.663H77.334
	c0.045-49.582,18.776-94.785,49.525-128.961c-39.296,35.357-64.012,86.601-64.012,143.624c0,106.675,86.477,193.152,193.152,193.152
	c57.023,0,108.268-24.716,143.624-64.013c-34.217,30.786-79.487,49.528-129.139,49.528c-83.706,0-154.966-53.25-181.777-127.719
	h353.639C446.774,346.063,449.151,328.984,449.151,311.348z"/>
<path style="fill:#F8CA4F;" d="M452.878,278.543H59.12c-18.118,0-32.805,14.687-32.805,32.805l0,0
	c0,18.118,14.688,32.805,32.805,32.805h393.758c18.118,0,32.805-14.687,32.805-32.805l0,0
	C485.683,293.23,470.996,278.543,452.878,278.543z"/>
<path style="opacity:0.15;enable-background:new    ;" d="M452.878,278.543H59.12c-18.118,0-32.805,14.687-32.805,32.805l0,0
	c0,18.118,14.688,32.805,32.805,32.805h393.758c18.118,0,32.805-14.687,32.805-32.805l0,0
	C485.683,293.23,470.996,278.543,452.878,278.543z"/>
<path style="opacity:0.1;enable-background:new    ;" d="M69.969,311.348c0-18.118,14.687-32.805,32.805-32.805H59.12
	c-18.118,0-32.805,14.687-32.805,32.805s14.687,32.805,32.805,32.805h43.655C84.657,344.153,69.969,329.466,69.969,311.348z"/>
<path style="fill:#485458;" d="M277.283,218.121c0,12.766-10.576,23.062-23.444,22.605c-12.257-0.436-21.795-10.882-21.795-23.147
	v-15.91c0-3.406,2.761-6.167,6.167-6.167h32.904c3.406,0,6.168,2.761,6.168,6.167V218.121z"/>
<path d="M167.769,194.467v13.4c0,4.143,3.357,7.5,7.5,7.5s7.5-3.357,7.5-7.5v-13.4c0-4.143-3.357-7.5-7.5-7.5
	C171.127,186.967,167.769,190.324,167.769,194.467z M238.212,188.001c-7.536,0-13.668,6.132-13.668,13.668v15.909
	c0,16.328,13.022,30.074,29.028,30.643c0.37,0.014,0.739,0.02,1.107,0.02c7.846,0,15.23-2.976,20.898-8.445
	c5.936-5.73,9.205-13.427,9.205-21.674V201.67c0-7.536-6.132-13.668-13.668-13.668h-32.902V188.001z M269.783,218.121
	c0,4.14-1.642,8.004-4.621,10.88c-2.978,2.875-6.9,4.382-11.057,4.229c-8.029-0.285-14.561-7.307-14.561-15.652v-14.577h30.239
	V218.121z M329.228,194.467v13.4c0,4.143,3.357,7.5,7.5,7.5s7.5-3.357,7.5-7.5v-13.4c0-4.143-3.357-7.5-7.5-7.5
	C332.586,186.967,329.228,190.324,329.228,194.467z M452.878,271.042h-0.3c-5.217-25.643-15.279-49.685-29.979-71.542
	c-2.313-3.439-6.974-4.349-10.409-2.038c-3.436,2.312-4.35,6.972-2.038,10.409c13.023,19.364,22.111,40.579,27.095,63.171H74.755
	c8.697-39.203,30.114-74.84,60.958-101.106c33.499-28.528,76.218-44.24,120.286-44.24c18.231,0,36.108,2.643,53.175,7.73
	c0.019,0.007,0.038,0.011,0.056,0.017c27.713,8.269,53.282,22.993,74.72,43.396c3.001,2.855,7.749,2.739,10.603-0.262
	c2.855-3.001,2.738-7.748-0.262-10.604c-20.503-19.514-44.505-34.214-70.512-43.536c7.934-12.663,12.225-27.39,12.225-42.431
	C336.005,35.891,300.114,0,255.999,0s-80.006,35.891-80.006,80.006c0,15.063,4.303,29.812,12.26,42.488
	c-22.602,8.105-43.74,20.245-62.265,36.022c-34.177,29.105-57.642,68.87-66.563,112.526h-0.304
	c-22.225,0-40.306,18.081-40.306,40.306s18.081,40.306,40.306,40.306h0.304c5.82,28.479,17.831,55.297,34.969,78.585
	c0.21,0.336,0.446,0.657,0.71,0.96c8.971,12.039,19.31,23.125,30.885,32.982c6.042,5.145,12.366,9.895,18.923,14.254
	c0.204,0.154,0.418,0.288,0.635,0.419C178.151,500.352,216.573,512,255.999,512s77.848-11.648,110.454-33.147
	c0.217-0.131,0.431-0.265,0.635-0.419c6.557-4.359,12.881-9.109,18.923-14.254c11.575-9.857,21.914-20.943,30.885-32.982
	c0.264-0.302,0.5-0.623,0.71-0.96c17.138-23.287,29.149-50.105,34.969-78.585h0.304c22.225,0,40.306-18.081,40.306-40.306
	C493.184,289.123,475.102,271.042,452.878,271.042z M268.371,111.085c-4.105-0.25-8.229-0.39-12.372-0.39
	c-4.137,0-8.262,0.137-12.371,0.391c-12.679-5.061-21.117-17.365-21.117-31.08c0-18.465,15.023-33.486,33.487-33.486
	c18.464,0,33.487,15.021,33.487,33.486C289.486,93.72,281.05,106.022,268.371,111.085z M255.999,15
	c35.845,0,65.006,29.161,65.006,65.006c0,13.536-4.286,26.755-12.132,37.733c-5.939-1.616-11.965-2.957-18.059-4.022
	c8.57-8.859,13.672-20.863,13.672-33.711c0-26.735-21.751-48.486-48.487-48.486s-48.487,21.751-48.487,48.486
	c0,12.86,5.112,24.875,13.698,33.737c-6.084,1.072-12.108,2.421-18.051,4.043c-7.867-10.987-12.166-24.226-12.166-37.78
	C190.993,44.161,220.154,15,255.999,15z M149.362,463.315c-4.695-3.295-9.253-6.812-13.649-10.555
	c-9.551-8.134-18.192-17.17-25.839-26.928c5.133-6.807,13.152-10.896,21.859-10.896c15.117,0,27.415,12.298,27.415,27.415
	C159.148,450.469,155.48,458.149,149.362,463.315z M266.521,442.19c-2.796,1.164-4.618,3.896-4.618,6.925v47.78
	c-1.965,0.062-3.933,0.105-5.904,0.105s-3.939-0.043-5.904-0.105v-47.78c0-3.029-1.822-5.761-4.618-6.925
	c-10.262-4.27-16.892-14.209-16.892-25.319c0-15.117,12.298-27.416,27.415-27.416s27.415,12.299,27.415,27.416
	C283.414,427.981,276.783,437.921,266.521,442.19z M452.878,336.653H137.332c-4.143,0-7.5,3.357-7.5,7.5s3.357,7.5,7.5,7.5h299.911
	c-4.882,22.006-13.77,42.889-26.087,61.621c-7.896-8.412-18.983-13.338-30.891-13.338c-15.676,0-30.013,8.592-37.416,22.421
	c-1.955,3.652-0.579,8.197,3.072,10.152c3.652,1.956,8.198,0.578,10.152-3.072c4.788-8.944,14.058-14.501,24.191-14.501
	c8.708,0,16.726,4.09,21.859,10.896c-7.646,9.758-16.288,18.794-25.839,26.928c-4.398,3.745-8.958,7.263-13.655,10.56
	c-2.209-1.861-4.131-4.059-5.66-6.513c-2.191-3.517-6.815-4.589-10.332-2.4c-3.516,2.19-4.59,6.815-2.4,10.332
	c1.551,2.49,3.376,4.802,5.404,6.918c-22.249,12.992-47.038,21.243-72.738,24.158v-42.029c13.216-7.465,21.511-21.455,21.511-36.914
	c0-23.389-19.027-42.416-42.415-42.416s-42.415,19.027-42.415,42.416c0,15.459,8.295,29.449,21.511,36.914v42.029
	c-25.703-2.915-50.494-11.168-72.745-24.162c7.442-7.805,11.798-18.293,11.798-29.302c0-23.388-19.027-42.415-42.415-42.415
	c-11.907,0-22.995,4.927-30.891,13.339c-12.318-18.732-21.206-39.615-26.088-61.621h18.857c4.143,0,7.5-3.357,7.5-7.5
	s-3.357-7.5-7.5-7.5H59.12c-13.953,0-25.306-11.352-25.306-25.306s11.353-25.306,25.306-25.306h6.476
	c0.015,0,0.031,0.002,0.046,0.002s0.029-0.002,0.044-0.002h380.626c0.015,0,0.029,0.002,0.044,0.002s0.031-0.002,0.046-0.002h6.476
	c13.953,0,25.306,11.352,25.306,25.306S466.831,336.653,452.878,336.653z"/>
<g>
</g>
<g>
</g>
<g>
</g>
<g>
</g>
<g>
</g>
<g>
</g>
<g>
</g>
<g>
</g>
<g>
</g>
<g>
</g>
<g>
</g>
<g>
</g>
<g>
</g>
<g>
</g>
<g>
</g>
</svg>
