<?xml version="1.0" encoding="iso-8859-1"?>
<!-- Generator: Adobe Illustrator 19.0.0, SVG Export Plug-In . SVG Version: 6.00 Build 0)  -->
<svg version="1.1" id="Capa_1" xmlns="http://www.w3.org/2000/svg" xmlns:xlink="http://www.w3.org/1999/xlink" x="0px" y="0px"
	 viewBox="0 0 512 512" style="enable-background:new 0 0 512 512;" xml:space="preserve">
<path style="fill:#F8CA4F;" d="M452.224,347.115c0-51.478-30.779-66.839-68.748-66.839s-68.748,15.361-68.748,66.839
	s30.78,135.607,68.748,135.607S452.224,398.593,452.224,347.115z"/>
<path style="opacity:0.1;enable-background:new    ;" d="M393.815,295.614c-37.968,0-68.748,15.361-68.748,66.839
	c0,30.469,10.784,72.372,27.457,101.503c-22.421-27.774-37.797-80.459-37.797-116.841c0-51.478,30.78-66.839,68.748-66.839
	c27.744,0,51.646,8.206,62.509,32.707C433.376,300.256,414.683,295.614,393.815,295.614z"/>
<g style="opacity:0.1;">
	<path d="M359.631,372.695c-0.271,0-0.545-0.015-0.822-0.045c-4.118-0.449-7.092-4.15-6.644-8.268l9.169-84.167
		c0.449-4.118,4.15-7.09,8.269-6.644c4.118,0.449,7.092,4.15,6.644,8.269l-9.169,84.167
		C366.66,369.848,363.409,372.695,359.631,372.695z"/>
	<path d="M407.32,372.695c-3.778,0-7.028-2.847-7.447-6.688l-9.169-84.167c-0.448-4.118,2.526-7.819,6.644-8.269
		c4.12-0.451,7.819,2.525,8.268,6.644l9.169,84.167c0.448,4.118-2.526,7.819-6.643,8.268
		C407.866,372.68,407.592,372.695,407.32,372.695z"/>
</g>
<path style="fill:#61C6AD;" d="M435.133,289.617H331.818c-5.759,0-9.793-5.687-7.888-11.122l12.131-34.625
	c1.174-3.351,4.337-5.595,7.888-5.595h79.053c3.551,0,6.714,2.244,7.888,5.595l12.131,34.625
	C444.925,283.93,440.892,289.617,435.133,289.617z"/>
<path style="opacity:0.1;enable-background:new    ;" d="M353.037,243.87l-12.131,34.625c-1.904,5.435,2.13,11.122,7.888,11.122
	h-16.976c-5.759,0-9.793-5.687-7.888-11.122l12.131-34.625c1.174-3.351,4.337-5.595,7.888-5.595h16.976
	C357.375,238.275,354.211,240.519,353.037,243.87z"/>
<path style="fill:#E86478;" d="M197.272,164.886c0,51.478-30.779,66.839-68.748,66.839s-68.748-15.361-68.748-66.839
	s30.78-135.607,68.748-135.607S197.272,113.407,197.272,164.886z"/>
<path style="opacity:0.1;enable-background:new    ;" d="M138.864,216.387c-37.968,0-68.748-15.361-68.748-66.839
	c0-30.468,10.784-72.372,27.457-101.503c-22.421,27.774-37.797,80.459-37.797,116.841c0,51.478,30.779,66.839,68.748,66.839
	c27.744,0,51.646-8.206,62.509-32.707C178.425,211.744,159.731,216.387,138.864,216.387z"/>
<g style="opacity:0.1;">
	<path d="M113.831,238.475c-3.778,0-7.028-2.847-7.447-6.689l-9.169-84.167c-0.448-4.118,2.526-7.819,6.644-8.269
		c4.122-0.448,7.82,2.525,8.269,6.644l9.169,84.167c0.448,4.118-2.526,7.819-6.644,8.269
		C114.376,238.46,114.102,238.475,113.831,238.475z"/>
	<path d="M143.218,238.475c-0.271,0-0.545-0.015-0.822-0.045c-4.118-0.449-7.092-4.15-6.644-8.269l9.169-84.167
		c0.449-4.118,4.147-7.093,8.269-6.644c4.118,0.449,7.092,4.15,6.644,8.269l-9.169,84.167
		C150.246,235.628,146.995,238.475,143.218,238.475z"/>
</g>
<path style="fill:#61C6AD;" d="M180.182,222.383H76.867c-5.759,0-9.793,5.687-7.888,11.122L81.11,268.13
	c1.174,3.351,4.337,5.595,7.888,5.595h79.053c3.551,0,6.714-2.244,7.888-5.595l12.131-34.625
	C189.974,228.071,185.94,222.383,180.182,222.383z"/>
<path style="opacity:0.1;enable-background:new    ;" d="M98.086,268.131l-12.131-34.625c-1.904-5.435,2.13-11.122,7.888-11.122
	H76.867c-5.759,0-9.793,5.687-7.888,11.122l12.131,34.625c1.174,3.351,4.337,5.595,7.888,5.595h16.976
	C102.423,273.726,99.26,271.482,98.086,268.131z"/>
<path style="fill:#61C6AD;" d="M191.991,302.359H21.817c-7.907,0-14.317-6.41-14.317-14.317c0-7.907,6.41-14.317,14.317-14.317
	h170.174c16.79,0,32.575-6.538,44.447-18.409l18.877-18.879c17.28-17.28,40.255-26.796,64.694-26.796h170.174
	c7.907,0,14.317,6.41,14.317,14.317s-6.41,14.317-14.317,14.317H320.009c-16.79,0-32.575,6.538-44.447,18.409l-18.877,18.879
	C239.405,292.843,216.43,302.359,191.991,302.359z"/>
<path style="opacity:0.15;enable-background:new    ;" d="M435.133,289.617H331.818c-5.759,0-9.793-5.687-7.888-11.122
	l12.131-34.625c1.174-3.351,4.337-5.595,7.888-5.595h79.053c3.551,0,6.714,2.244,7.888,5.595l12.131,34.625
	C444.925,283.93,440.892,289.617,435.133,289.617z"/>
<path style="opacity:0.15;enable-background:new    ;" d="M180.182,222.383H76.867c-5.759,0-9.793,5.687-7.888,11.122L81.11,268.13
	c1.174,3.351,4.337,5.595,7.888,5.595h79.053c3.551,0,6.714-2.244,7.888-5.595l12.131-34.625
	C189.974,228.071,185.94,222.383,180.182,222.383z"/>
<path d="M64.995,46.152c1.466,1.476,3.394,2.216,5.322,2.216c1.911,0,3.822-0.726,5.285-2.178c2.939-2.919,2.956-7.668,0.037-10.606
	L48.256,8.005c-2.919-2.94-7.667-2.956-10.607-0.038c-2.939,2.919-2.956,7.668-0.037,10.606L64.995,46.152z M437.209,422.201
	c0.809,0.278,1.631,0.41,2.44,0.41c3.113,0,6.022-1.953,7.092-5.063c8.251-23.982,12.982-49.655,12.982-70.435
	c0-22.338-5.52-39.832-16.434-52.262c1.858-1.114,3.494-2.608,4.779-4.42c2.968-4.185,3.728-9.575,2.031-14.417l-10.595-30.241
	h50.679c12.03,0,21.817-9.787,21.817-21.816c0-12.03-9.787-21.817-21.817-21.817H320.009c-26.441,0-51.3,10.297-69.997,28.993
	l-18.877,18.879c-10.455,10.455-24.357,16.213-39.143,16.213h-7.438l10.595-30.24c1.697-4.843,0.938-10.232-2.031-14.418
	c-1.285-1.812-2.921-3.306-4.779-4.42c10.914-12.43,16.434-29.923,16.434-52.261c0-27.308-7.972-61.871-20.804-90.202
	c-15.453-34.116-35.143-52.904-55.444-52.904c-11.059,0-21.823,5.405-31.992,16.066c-2.859,2.997-2.747,7.745,0.251,10.604
	c2.997,2.858,7.745,2.747,10.604-0.25c7.228-7.578,14.339-11.42,21.137-11.42c13.656,0,29.274,16.483,41.78,44.093
	c11.826,26.11,19.468,59.087,19.468,84.014c0,24.343-7.118,40.708-21.699,49.997H88.975c-14.581-9.289-21.699-25.654-21.699-49.997
	c0-27.116,8.99-63.331,22.37-90.116c1.851-3.705,0.348-8.21-3.358-10.061c-3.705-1.854-8.21-0.349-10.061,3.357
	c-14.55,29.127-23.951,67.131-23.951,96.819c0,22.338,5.52,39.832,16.434,52.261c-1.858,1.114-3.494,2.608-4.779,4.42
	c-2.968,4.186-3.728,9.575-2.031,14.417l10.595,30.241H21.817C9.787,266.226,0,276.013,0,288.042
	c0,12.03,9.787,21.817,21.817,21.817H47.96c4.142,0,7.5-3.357,7.5-7.5s-3.358-7.5-7.5-7.5H21.817c-3.759,0-6.817-3.059-6.817-6.817
	s3.058-6.816,6.817-6.816h170.174c18.793,0,36.461-7.318,49.749-20.607l18.878-18.878c15.864-15.864,36.956-24.601,59.391-24.601
	h170.174c3.759,0,6.817,3.059,6.817,6.817s-3.058,6.816-6.817,6.816H320.009c-18.793,0-36.461,7.318-49.75,20.606l-18.877,18.878
	c-15.864,15.864-36.956,24.601-59.391,24.601H86.238c-4.142,0-7.5,3.357-7.5,7.5s3.358,7.5,7.5,7.5h105.753
	c26.441,0,51.3-10.297,69.997-28.993l18.877-18.879c10.455-10.455,24.357-16.213,39.143-16.213h7.438l-10.595,30.24
	c-1.697,4.843-0.938,10.233,2.031,14.418c1.285,1.812,2.921,3.306,4.779,4.42c-10.914,12.43-16.434,29.923-16.434,52.261
	c0,27.308,7.972,61.871,20.804,90.202c15.453,34.116,35.143,52.904,55.444,52.904c17.426,0,34.225-13.574,48.582-39.254
	c2.021-3.616,0.729-8.186-2.887-10.207c-3.616-2.022-8.185-0.729-10.206,2.887c-11.383,20.361-23.986,31.574-35.489,31.574
	c-13.656,0-29.274-16.483-41.78-44.093c-11.826-26.11-19.468-59.087-19.468-84.014c0-24.343,7.118-40.708,21.698-49.997h79.099
	c14.58,9.289,21.698,25.654,21.698,49.997c0,19.186-4.434,43.079-12.167,65.556C431.209,416.586,433.292,420.854,437.209,422.201z
	 M180.992,231.026l-12.131,34.625c-0.12,0.344-0.446,0.575-0.81,0.575H88.998c-0.364,0-0.689-0.23-0.81-0.574l-12.131-34.627
	c-0.036-0.104-0.146-0.418,0.11-0.779c0.257-0.362,0.591-0.362,0.701-0.362h9.929c0.005,0,0.01,0.001,0.015,0.001
	s0.01-0.001,0.015-0.001h83.396c0.005,0,0.01,0.001,0.015,0.001s0.01-0.001,0.015-0.001h9.929c0.11,0,0.443,0,0.7,0.362
	C181.138,230.607,181.028,230.921,180.992,231.026z M435.833,281.755c-0.257,0.362-0.591,0.362-0.701,0.362H331.818
	c-0.11,0-0.443,0-0.7-0.362c-0.256-0.361-0.146-0.676-0.11-0.78l12.131-34.625c0.12-0.344,0.446-0.575,0.81-0.575h79.053
	c0.364,0,0.689,0.23,0.81,0.574l12.131,34.627C435.979,281.079,436.09,281.394,435.833,281.755z M5.518,91.767l35.332,15.767
	c0.993,0.443,2.031,0.653,3.052,0.653c2.87,0,5.608-1.656,6.854-4.445c1.688-3.783-0.01-8.218-3.793-9.905L11.63,78.07
	c-3.782-1.689-8.217,0.011-9.905,3.792C0.037,85.645,1.735,90.079,5.518,91.767z M206.294,103.741
	c1.245,2.79,3.984,4.445,6.854,4.445c1.021,0,2.059-0.21,3.052-0.653l35.332-15.767c3.783-1.688,5.481-6.122,3.793-9.905
	c-1.688-3.782-6.123-5.481-9.905-3.792l-35.332,15.767C206.304,95.524,204.606,99.958,206.294,103.741z M186.731,48.367
	c1.928,0,3.856-0.739,5.322-2.216l27.383-27.578c2.918-2.939,2.901-7.688-0.038-10.606c-2.939-2.919-7.688-2.902-10.607,0.038
	l-27.383,27.578c-2.919,2.939-2.901,7.688,0.038,10.606C182.91,47.642,184.821,48.367,186.731,48.367z M447.005,465.849
	c-2.919-2.939-7.667-2.955-10.607-0.038c-2.939,2.919-2.956,7.668-0.037,10.607l27.383,27.578c1.466,1.477,3.394,2.216,5.322,2.216
	c1.911,0,3.822-0.726,5.285-2.178c2.939-2.919,2.956-7.668,0.037-10.606L447.005,465.849z M506.482,420.234l-35.332-15.767
	c-3.783-1.69-8.217,0.011-9.905,3.792c-1.688,3.783,0.01,8.218,3.793,9.905l35.332,15.767c0.993,0.443,2.031,0.653,3.052,0.653
	c2.87,0,5.608-1.656,6.854-4.445C511.963,426.356,510.265,421.921,506.482,420.234z M305.706,408.259
	c-1.689-3.783-6.123-5.482-9.905-3.792l-35.332,15.767c-3.783,1.688-5.481,6.122-3.793,9.905c1.245,2.79,3.984,4.445,6.853,4.445
	c1.021,0,2.059-0.21,3.052-0.653l35.332-15.767C305.696,416.477,307.394,412.042,305.706,408.259z M319.946,465.849l-27.383,27.578
	c-2.918,2.939-2.901,7.688,0.038,10.606c1.463,1.452,3.374,2.178,5.285,2.178c1.928,0,3.856-0.739,5.322-2.216l27.383-27.578
	c2.918-2.94,2.901-7.688-0.038-10.607C327.613,462.893,322.865,462.908,319.946,465.849z"/>
<g>
</g>
<g>
</g>
<g>
</g>
<g>
</g>
<g>
</g>
<g>
</g>
<g>
</g>
<g>
</g>
<g>
</g>
<g>
</g>
<g>
</g>
<g>
</g>
<g>
</g>
<g>
</g>
<g>
</g>
</svg>
