<?xml version="1.0" encoding="iso-8859-1"?>
<!-- Generator: Adobe Illustrator 19.0.0, SVG Export Plug-In . SVG Version: 6.00 Build 0)  -->
<svg version="1.1" id="Capa_1" xmlns="http://www.w3.org/2000/svg" xmlns:xlink="http://www.w3.org/1999/xlink" x="0px" y="0px"
	 viewBox="0 0 512 512" style="enable-background:new 0 0 512 512;" xml:space="preserve">
<path style="fill:#E86478;" d="M392.783,114.809v191.479c0,29.701-11.799,58.185-32.8,79.187L273.756,471.7
	c-21.867,21.867-50.527,32.8-79.187,32.8s-57.32-10.933-79.187-32.8c-43.733-43.734-43.733-114.639,0-158.373l42.758-42.757
	c6.831-6.831,10.668-16.095,10.668-25.755V114.809H392.783z"/>
<path style="fill:#F8CA4F;" d="M323.415,207.324c-25.89,16.829-59.348,16.828-85.238,0c-20.608-13.396-45.649-17.936-69.368-13.045
	v14.923c20.854-5.153,43.201-1.521,61.433,10.33c15.355,9.981,32.955,14.971,50.554,14.971c17.6,0,35.199-4.99,50.554-14.971
	c18.424-11.976,40.59-15.551,61.432-10.348v-14.942C369.095,189.296,344.238,193.789,323.415,207.324z M323.415,162.385
	c-25.891,16.828-59.347,16.828-85.238,0c-20.608-13.396-45.649-17.936-69.368-13.045v14.923c20.854-5.153,43.201-1.52,61.433,10.33
	c15.355,9.98,32.955,14.971,50.554,14.971c17.6,0,35.199-4.99,50.554-14.971c18.424-11.976,40.59-15.551,61.432-10.348v-14.942
	C369.095,144.356,344.238,148.849,323.415,162.385z"/>
<path style="fill:#EEEDED;" d="M404.47,114.809H157.122c-13.743,0-24.885-11.141-24.885-24.885V32.385
	c0-13.743,11.141-24.885,24.885-24.885H404.47c13.743,0,24.885,11.141,24.885,24.885v57.539
	C429.355,103.667,418.213,114.809,404.47,114.809z"/>
<path style="opacity:0.1;enable-background:new    ;" d="M155.505,89.924V32.385c0-13.743,11.141-24.885,24.885-24.885h-23.267
	c-13.743,0-24.885,11.141-24.885,24.885v57.539c0,13.743,11.141,24.885,24.885,24.885h23.267
	C166.646,114.809,155.505,103.667,155.505,89.924z"/>
<rect x="168.809" y="114.81" style="opacity:0.1;enable-background:new    ;" width="223.97" height="34.31"/>
<path style="opacity:0.1;enable-background:new    ;" d="M306.864,339.556c0,27.217,11.694,51.701,30.328,68.71l22.791-22.791
	c21.001-21.002,32.8-49.486,32.8-79.187v-59.445C344.731,250.469,306.864,290.576,306.864,339.556z"/>
<path style="opacity:0.1;enable-background:new    ;" d="M196.999,390.084c-29.686-29.686-71.519-39.812-109.5-30.396
	c-11.713,38.328-2.432,81.695,27.884,112.011c21.867,21.867,50.526,32.8,79.187,32.8c11.074,0,22.143-1.651,32.825-4.916
	C236.811,461.603,226.685,419.771,196.999,390.084z"/>
<g style="opacity:0.1;">
	<path d="M177.646,59.292c-1.919,0-3.839-0.732-5.303-2.197c-2.929-2.929-2.929-7.678,0-10.606l10.479-10.48
		c2.929-2.929,7.678-2.929,10.607,0s2.929,7.678,0,10.606l-10.48,10.479C181.485,58.559,179.566,59.292,177.646,59.292z"/>
	<path d="M224.758,95.924c-1.919,0-3.839-0.732-5.303-2.197l-13.648-13.648c-2.929-2.929-2.929-7.678,0-10.606
		c2.929-2.929,7.678-2.929,10.606,0l13.648,13.648c2.929,2.929,2.929,7.678,0,10.607C228.597,95.191,226.677,95.924,224.758,95.924z
		"/>
	<path d="M269.439,59.446c-1.919,0-3.839-0.732-5.303-2.197c-2.929-2.929-2.929-7.677,0-10.606l12.275-12.275
		c2.929-2.929,7.678-2.93,10.607,0c2.929,2.929,2.929,7.677,0,10.606L274.742,57.25C273.278,58.714,271.358,59.446,269.439,59.446z"
		/>
	<path d="M341.262,94.878c-1.919,0-3.839-0.732-5.303-2.197l-12.602-12.602c-2.929-2.929-2.929-7.678,0-10.606
		c2.929-2.929,7.678-2.929,10.606,0l12.602,12.602c2.929,2.929,2.929,7.678,0,10.606C345.101,94.146,343.182,94.878,341.262,94.878z
		"/>
	<path d="M385.662,66.486c-1.919,0-3.839-0.732-5.303-2.197c-2.929-2.929-2.929-7.678,0-10.607l13.361-13.361
		c2.929-2.929,7.678-2.929,10.606,0c2.929,2.929,2.929,7.678,0,10.606L390.965,64.29C389.501,65.754,387.581,66.486,385.662,66.486z
		"/>
</g>
<g style="opacity:0.2;">
	<circle style="fill:#FFFFFF;" cx="155.829" cy="430.28" r="7.211"/>
	<circle style="fill:#FFFFFF;" cx="159.659" cy="329.03" r="7.211"/>
	<circle style="fill:#FFFFFF;" cx="219.029" cy="275.51" r="7.211"/>
	<circle style="fill:#FFFFFF;" cx="278.179" cy="391.48" r="7.211"/>
	<circle style="fill:#FFFFFF;" cx="259.949" cy="168.35" r="7.211"/>
	<circle style="fill:#FFFFFF;" cx="322.769" cy="229.6" r="7.211"/>
	<circle style="fill:#FFFFFF;" cx="345.759" cy="324.04" r="7.211"/>
</g>
<path d="M404.47,0H157.122c-17.857,0-32.385,14.528-32.385,32.385v57.539c0,17.857,14.528,32.385,32.385,32.385h4.188v122.506
	c0,7.725-3.008,14.989-8.471,20.452l-42.758,42.757c-14.156,14.156-24.002,31.012-29.555,48.923
	c-0.138,0.349-0.248,0.709-0.333,1.078c-12.219,40.772-2.26,86.831,29.887,118.979C132.648,499.571,162.654,512,194.57,512
	c31.915,0,61.921-12.429,84.49-34.997l86.226-86.227c22.568-22.568,34.997-52.574,34.997-84.49V122.309h4.188
	c17.857,0,32.385-14.528,32.385-32.385V32.385C436.855,14.528,422.327,0,404.47,0z M421.855,89.924
	c0,9.586-7.799,17.385-17.385,17.385H237.847c-4.142,0-7.5,3.358-7.5,7.5s3.358,7.5,7.5,7.5h147.435v117.832
	c-7.911,1.151-15.641,3.229-23.055,6.225c-3.84,1.551-5.696,5.923-4.144,9.763c1.18,2.92,3.989,4.692,6.956,4.692
	c0.936,0,1.887-0.176,2.807-0.548c5.624-2.272,11.464-3.915,17.436-4.941v50.956c0,27.909-10.868,54.148-30.603,73.883
	l-17.508,17.508c-14.569-15.738-22.808-36.546-22.808-58.123c0-23.953,10.151-46.961,27.85-63.124
	c3.059-2.793,3.274-7.537,0.48-10.596c-2.793-3.059-7.537-3.273-10.596-0.48c-20.803,18.998-32.734,46.043-32.734,74.2
	c0,25.554,9.826,50.192,27.192,68.739l-58.102,58.103c-9.172,9.171-19.75,16.425-31.246,21.566
	c1.127-8.471,1.386-17.042,0.736-25.617c-0.313-4.13-3.905-7.219-8.045-6.912c-4.13,0.313-7.225,3.915-6.912,8.045
	c0.767,10.124,0.117,20.244-1.929,30.145c-8.544,2.223-17.426,3.375-26.487,3.375c-27.91,0-54.148-10.869-73.884-30.603
	c-27.153-27.154-36.201-65.656-27.158-100.379c35.779-7.413,72.192,3.396,98.167,29.37c10.509,10.509,18.589,22.78,24.016,36.473
	c1.167,2.944,3.989,4.739,6.974,4.739c0.919,0,1.854-0.17,2.761-0.53c3.851-1.526,5.735-5.885,4.209-9.735
	c-6.186-15.608-15.389-29.588-27.354-41.553c-15.255-15.256-34.275-26.253-55.002-31.803c-15.671-4.197-32.072-5.225-48.115-3.107
	c5.053-11.337,12.215-21.954,21.502-31.242l42.758-42.757c8.296-8.296,12.865-19.326,12.865-31.058V122.309h19.472
	c4.142,0,7.5-3.358,7.5-7.5s-3.358-7.5-7.5-7.5h-38.66c-9.586,0-17.385-7.799-17.385-17.385V32.385
	c0-9.586,7.799-17.385,17.385-17.385h247.348c9.586,0,17.385,7.799,17.385,17.385v57.539H421.855z"/>
<g>
</g>
<g>
</g>
<g>
</g>
<g>
</g>
<g>
</g>
<g>
</g>
<g>
</g>
<g>
</g>
<g>
</g>
<g>
</g>
<g>
</g>
<g>
</g>
<g>
</g>
<g>
</g>
<g>
</g>
</svg>
